<mxfile host="Electron" agent="Mozilla/5.0 (X11; Linux x86_64) AppleWebKit/537.36 (KHTML, like Gecko) draw.io/28.0.4 Chrome/138.0.7204.97 Electron/37.2.1 Safari/537.36" version="28.0.4">
  <diagram name="Agentic-Mesh" id="PfX2CSfs86jKIldENeM4">
    <mxGraphModel dx="1356" dy="848" grid="1" gridSize="10" guides="1" tooltips="1" connect="1" arrows="1" fold="1" page="1" pageScale="1" pageWidth="1100" pageHeight="850" math="0" shadow="0">
      <root>
        <mxCell id="0" />
        <mxCell id="1" parent="0" />
        <mxCell id="FRUZjQZHrvY_33S5YqQ4-61" value="" style="rounded=0;whiteSpace=wrap;html=1;strokeColor=none;" vertex="1" parent="1">
          <mxGeometry x="24" y="19" width="1036" height="741" as="geometry" />
        </mxCell>
        <mxCell id="FRUZjQZHrvY_33S5YqQ4-39" value="" style="rounded=0;whiteSpace=wrap;html=1;fillColor=#dae8fc;strokeColor=#6c8ebf;strokeWidth=2;" vertex="1" parent="1">
          <mxGeometry x="35" y="662" width="685" height="70" as="geometry" />
        </mxCell>
        <mxCell id="FRUZjQZHrvY_33S5YqQ4-38" value="" style="rounded=0;whiteSpace=wrap;html=1;fillColor=#dae8fc;strokeColor=#6c8ebf;strokeWidth=2;" vertex="1" parent="1">
          <mxGeometry x="35" y="591" width="685" height="70" as="geometry" />
        </mxCell>
        <mxCell id="FRUZjQZHrvY_33S5YqQ4-37" value="" style="rounded=0;whiteSpace=wrap;html=1;fillColor=#dae8fc;strokeColor=#6c8ebf;strokeWidth=2;" vertex="1" parent="1">
          <mxGeometry x="35" y="501" width="685" height="90" as="geometry" />
        </mxCell>
        <mxCell id="FRUZjQZHrvY_33S5YqQ4-36" value="" style="rounded=0;whiteSpace=wrap;html=1;fillColor=#dae8fc;strokeColor=#6c8ebf;strokeWidth=2;" vertex="1" parent="1">
          <mxGeometry x="35" y="400" width="685" height="100" as="geometry" />
        </mxCell>
        <mxCell id="FRUZjQZHrvY_33S5YqQ4-35" value="" style="rounded=0;whiteSpace=wrap;html=1;fillColor=#dae8fc;strokeColor=#6c8ebf;strokeWidth=2;" vertex="1" parent="1">
          <mxGeometry x="35" y="301" width="685" height="100" as="geometry" />
        </mxCell>
        <mxCell id="FRUZjQZHrvY_33S5YqQ4-34" value="" style="rounded=0;whiteSpace=wrap;html=1;fillColor=#dae8fc;strokeColor=#6c8ebf;strokeWidth=2;" vertex="1" parent="1">
          <mxGeometry x="35" y="200" width="685" height="100" as="geometry" />
        </mxCell>
        <mxCell id="YMDonVfkHX1IOAZZHgD1-66" value="" style="rounded=0;whiteSpace=wrap;html=1;fillColor=#dae8fc;strokeColor=#6c8ebf;strokeWidth=2;" parent="1" vertex="1">
          <mxGeometry x="35" y="109" width="685" height="91" as="geometry" />
        </mxCell>
        <mxCell id="YMDonVfkHX1IOAZZHgD1-1" value="&lt;font style=&quot;font-size: 10px;&quot;&gt;CrewNet&amp;nbsp;&lt;/font&gt;" style="rounded=0;whiteSpace=wrap;html=1;labelBackgroundColor=none;textShadow=0;fillStyle=solid;fillColor=#D5E8D4;gradientColor=none;" parent="1" vertex="1">
          <mxGeometry x="120.97" y="310" width="60" height="40" as="geometry" />
        </mxCell>
        <mxCell id="YMDonVfkHX1IOAZZHgD1-2" value="&lt;font style=&quot;font-size: 10px;&quot;&gt;Sailpoint&lt;/font&gt;" style="rounded=0;whiteSpace=wrap;html=1;fillColor=#D5E8D4;fillStyle=solid;" parent="1" vertex="1">
          <mxGeometry x="180.97" y="310" width="50" height="40" as="geometry" />
        </mxCell>
        <mxCell id="YMDonVfkHX1IOAZZHgD1-3" value="&lt;span style=&quot;font-size: 10px;&quot;&gt;SearchIT&amp;nbsp;&lt;/span&gt;" style="rounded=0;whiteSpace=wrap;html=1;fillColor=#D5E8D4;fillStyle=solid;" parent="1" vertex="1">
          <mxGeometry x="230.97000000000003" y="310" width="48.03" height="40" as="geometry" />
        </mxCell>
        <mxCell id="YMDonVfkHX1IOAZZHgD1-4" value="&lt;span style=&quot;font-size: 10px;&quot;&gt;CloudOps /&lt;/span&gt;&lt;div&gt;&lt;span style=&quot;font-size: 10px;&quot;&gt;SNOW&lt;/span&gt;&lt;/div&gt;" style="rounded=0;whiteSpace=wrap;html=1;fillColor=#D5E8D4;fillStyle=solid;" parent="1" vertex="1">
          <mxGeometry x="189" y="350" width="67" height="40" as="geometry" />
        </mxCell>
        <mxCell id="YMDonVfkHX1IOAZZHgD1-6" value="&lt;span style=&quot;font-size: 10px;&quot;&gt;JIRA&lt;/span&gt;" style="rounded=0;whiteSpace=wrap;html=1;fillColor=#D5E8D4;fillStyle=solid;" parent="1" vertex="1">
          <mxGeometry x="349" y="310" width="50" height="40" as="geometry" />
        </mxCell>
        <mxCell id="YMDonVfkHX1IOAZZHgD1-7" value="&lt;div&gt;&lt;b&gt;Tools&lt;/b&gt;&lt;/div&gt;" style="rounded=0;whiteSpace=wrap;html=1;strokeColor=none;rotation=270;" parent="1" vertex="1">
          <mxGeometry x="23.97" y="330" width="67.5" height="30" as="geometry" />
        </mxCell>
        <mxCell id="YMDonVfkHX1IOAZZHgD1-8" value="&lt;span style=&quot;font-size: 10px;&quot;&gt;GitHub&amp;nbsp;&lt;/span&gt;" style="rounded=0;whiteSpace=wrap;html=1;" parent="1" vertex="1">
          <mxGeometry x="422.00000000000006" y="350" width="50" height="40" as="geometry" />
        </mxCell>
        <mxCell id="YMDonVfkHX1IOAZZHgD1-9" value="&lt;span style=&quot;font-size: 10px;&quot;&gt;Jira Product Discovery&lt;/span&gt;" style="rounded=0;whiteSpace=wrap;html=1;" parent="1" vertex="1">
          <mxGeometry x="541" y="310" width="70" height="40" as="geometry" />
        </mxCell>
        <mxCell id="YMDonVfkHX1IOAZZHgD1-10" value="&lt;span style=&quot;font-size: 10px;&quot;&gt;Adobe&amp;nbsp;&lt;/span&gt;&lt;div&gt;&lt;span style=&quot;font-size: 10px;&quot;&gt;XD&lt;/span&gt;&lt;/div&gt;" style="rounded=0;whiteSpace=wrap;html=1;" parent="1" vertex="1">
          <mxGeometry x="520" y="350" width="50" height="40" as="geometry" />
        </mxCell>
        <mxCell id="YMDonVfkHX1IOAZZHgD1-11" value="&lt;span style=&quot;font-size: 10px;&quot;&gt;Figma&lt;/span&gt;" style="rounded=0;whiteSpace=wrap;html=1;" parent="1" vertex="1">
          <mxGeometry x="611" y="310" width="50" height="40" as="geometry" />
        </mxCell>
        <mxCell id="YMDonVfkHX1IOAZZHgD1-12" value="&lt;span style=&quot;font-size: 10px;&quot;&gt;DPM Methodology&lt;/span&gt;" style="rounded=0;whiteSpace=wrap;html=1;" parent="1" vertex="1">
          <mxGeometry x="481" y="310" width="60" height="40" as="geometry" />
        </mxCell>
        <mxCell id="YMDonVfkHX1IOAZZHgD1-13" value="&lt;span style=&quot;font-size: 10px;&quot;&gt;Usertesting .com&lt;/span&gt;" style="rounded=0;html=1;whiteSpace=wrap;" parent="1" vertex="1">
          <mxGeometry x="570" y="350" width="60" height="40" as="geometry" />
        </mxCell>
        <mxCell id="YMDonVfkHX1IOAZZHgD1-14" value="&lt;span style=&quot;font-size: 10px;&quot;&gt;AWS&amp;nbsp;&lt;/span&gt;&lt;div&gt;&lt;span style=&quot;font-size: 10px; background-color: transparent; color: light-dark(rgb(0, 0, 0), rgb(255, 255, 255));&quot;&gt;Data Lake&lt;/span&gt;&lt;/div&gt;" style="rounded=0;whiteSpace=wrap;html=1;" parent="1" vertex="1">
          <mxGeometry x="557" y="522" width="80" height="45" as="geometry" />
        </mxCell>
        <mxCell id="YMDonVfkHX1IOAZZHgD1-15" value="&lt;b&gt;Data&lt;/b&gt;" style="rounded=0;whiteSpace=wrap;html=1;strokeColor=none;rotation=270;" parent="1" vertex="1">
          <mxGeometry x="35" y="616" width="47.5" height="20" as="geometry" />
        </mxCell>
        <mxCell id="YMDonVfkHX1IOAZZHgD1-16" value="&lt;span style=&quot;font-size: 10px;&quot;&gt;Glue Catalog&lt;/span&gt;" style="rounded=0;whiteSpace=wrap;html=1;" parent="1" vertex="1">
          <mxGeometry x="499.97" y="611" width="68" height="30" as="geometry" />
        </mxCell>
        <mxCell id="YMDonVfkHX1IOAZZHgD1-17" value="&lt;span style=&quot;font-size: 10px;&quot;&gt;Collibra&lt;/span&gt;" style="rounded=0;whiteSpace=wrap;html=1;" parent="1" vertex="1">
          <mxGeometry x="439.97" y="611" width="60" height="30" as="geometry" />
        </mxCell>
        <mxCell id="YMDonVfkHX1IOAZZHgD1-18" value="&lt;b&gt;&amp;nbsp;Common&lt;/b&gt;&lt;div&gt;&lt;b&gt;Services&lt;/b&gt;&lt;/div&gt;" style="rounded=0;whiteSpace=wrap;html=1;strokeColor=none;rotation=270;" parent="1" vertex="1">
          <mxGeometry x="27" y="527" width="67.5" height="42" as="geometry" />
        </mxCell>
        <mxCell id="YMDonVfkHX1IOAZZHgD1-19" value="&lt;span style=&quot;font-size: 10px;&quot;&gt;URL&lt;/span&gt;&lt;div&gt;&lt;span style=&quot;font-size: 10px;&quot;&gt;Endpoint&lt;/span&gt;&lt;/div&gt;" style="rounded=0;whiteSpace=wrap;html=1;fillColor=#D5E8D4;fillStyle=solid;" parent="1" vertex="1">
          <mxGeometry x="199" y="522" width="60" height="46" as="geometry" />
        </mxCell>
        <mxCell id="YMDonVfkHX1IOAZZHgD1-20" value="&lt;span style=&quot;font-size: 10px;&quot;&gt;API&lt;/span&gt;&lt;div&gt;&lt;span style=&quot;font-size: 10px;&quot;&gt;Gateway&lt;/span&gt;&lt;/div&gt;" style="rounded=0;whiteSpace=wrap;html=1;fillColor=#D5E8D4;fillStyle=solid;" parent="1" vertex="1">
          <mxGeometry x="120" y="521" width="70" height="47" as="geometry" />
        </mxCell>
        <mxCell id="YMDonVfkHX1IOAZZHgD1-22" value="&lt;span style=&quot;font-size: 10px;&quot;&gt;SQL&lt;/span&gt;&lt;div&gt;&lt;span style=&quot;font-size: 10px;&quot;&gt;Athena&lt;/span&gt;&lt;/div&gt;" style="rounded=0;whiteSpace=wrap;html=1;" parent="1" vertex="1">
          <mxGeometry x="479" y="522" width="78" height="45" as="geometry" />
        </mxCell>
        <mxCell id="YMDonVfkHX1IOAZZHgD1-24" value="&lt;span style=&quot;font-size: 10px;&quot;&gt;Model&lt;/span&gt;&lt;div&gt;&lt;span style=&quot;font-size: 10px;&quot;&gt;Inventory&lt;/span&gt;&lt;/div&gt;" style="rounded=0;whiteSpace=wrap;html=1;fillColor=#d5e8d4;strokeColor=#82b366;" parent="1" vertex="1">
          <mxGeometry x="120" y="413" width="70" height="40" as="geometry" />
        </mxCell>
        <mxCell id="YMDonVfkHX1IOAZZHgD1-25" value="&lt;span style=&quot;font-size: 10px;&quot;&gt;Observability&lt;/span&gt;&lt;div&gt;&lt;span style=&quot;font-size: 10px;&quot;&gt;Arize&lt;/span&gt;&lt;/div&gt;" style="rounded=0;whiteSpace=wrap;html=1;fillColor=#D5E8D4;fillStyle=solid;" parent="1" vertex="1">
          <mxGeometry x="307" y="413" width="70" height="40" as="geometry" />
        </mxCell>
        <mxCell id="YMDonVfkHX1IOAZZHgD1-26" value="&lt;b&gt;Model&lt;/b&gt;&lt;div&gt;&lt;b&gt;Mgmt&lt;/b&gt;&lt;/div&gt;" style="rounded=0;whiteSpace=wrap;html=1;strokeColor=none;rotation=270;" parent="1" vertex="1">
          <mxGeometry x="13.39" y="432.12" width="89.19" height="32.46" as="geometry" />
        </mxCell>
        <mxCell id="YMDonVfkHX1IOAZZHgD1-27" value="&lt;span style=&quot;font-size: 10px;&quot;&gt;Memory&lt;/span&gt;" style="rounded=0;whiteSpace=wrap;html=1;fillColor=#d5e8d4;strokeColor=#82b366;" parent="1" vertex="1">
          <mxGeometry x="221" y="413" width="56" height="40" as="geometry" />
        </mxCell>
        <mxCell id="YMDonVfkHX1IOAZZHgD1-28" value="&lt;span style=&quot;font-size: 10px;&quot;&gt;Knowledge&lt;/span&gt;&lt;div&gt;&lt;span style=&quot;font-size: 10px;&quot;&gt;Base&lt;/span&gt;&lt;/div&gt;" style="rounded=0;whiteSpace=wrap;html=1;fillColor=#d5e8d4;strokeColor=#82b366;" parent="1" vertex="1">
          <mxGeometry x="219" y="459" width="78" height="30" as="geometry" />
        </mxCell>
        <mxCell id="YMDonVfkHX1IOAZZHgD1-31" value="&lt;span style=&quot;font-size: 10px;&quot;&gt;Guardrail&lt;/span&gt;" style="rounded=0;whiteSpace=wrap;html=1;fillColor=#d5e8d4;strokeColor=#82b366;" parent="1" vertex="1">
          <mxGeometry x="120" y="459" width="67" height="30" as="geometry" />
        </mxCell>
        <mxCell id="YMDonVfkHX1IOAZZHgD1-32" value="&lt;b&gt;Multi-Agent workflow&lt;/b&gt;" style="rounded=0;whiteSpace=wrap;html=1;strokeColor=none;rotation=270;" parent="1" vertex="1">
          <mxGeometry x="24" y="223" width="86.37" height="50" as="geometry" />
        </mxCell>
        <mxCell id="YMDonVfkHX1IOAZZHgD1-34" value="&lt;span style=&quot;font-size: 10px;&quot;&gt;AWS BedRock&amp;nbsp;&lt;/span&gt;&lt;div&gt;&lt;span style=&quot;font-size: 10px;&quot;&gt;Agent&lt;/span&gt;&lt;/div&gt;" style="rounded=0;whiteSpace=wrap;html=1;fillColor=#d5e8d4;strokeColor=#82b366;" parent="1" vertex="1">
          <mxGeometry x="197.72" y="221.47" width="98.5" height="38.53" as="geometry" />
        </mxCell>
        <mxCell id="YMDonVfkHX1IOAZZHgD1-35" value="&lt;span style=&quot;font-size: 10px;&quot;&gt;LangChain&lt;/span&gt;" style="rounded=0;whiteSpace=wrap;html=1;fillColor=#d5e8d4;strokeColor=#82b366;" parent="1" vertex="1">
          <mxGeometry x="121" y="220" width="70" height="30" as="geometry" />
        </mxCell>
        <mxCell id="YMDonVfkHX1IOAZZHgD1-36" value="&lt;span style=&quot;font-size: 10px;&quot;&gt;LangGraph&lt;/span&gt;" style="rounded=0;whiteSpace=wrap;html=1;fillColor=#d5e8d4;strokeColor=#82b366;" parent="1" vertex="1">
          <mxGeometry x="121" y="250" width="70" height="30" as="geometry" />
        </mxCell>
        <mxCell id="YMDonVfkHX1IOAZZHgD1-37" value="&lt;span style=&quot;font-size: 10px;&quot;&gt;MCP&lt;/span&gt;" style="rounded=0;whiteSpace=wrap;html=1;fillColor=#d5e8d4;strokeColor=#82b366;" parent="1" vertex="1">
          <mxGeometry x="304.25" y="221.47" width="54" height="38.53" as="geometry" />
        </mxCell>
        <mxCell id="YMDonVfkHX1IOAZZHgD1-38" value="&lt;span style=&quot;font-size: 10px;&quot;&gt;A2A&lt;/span&gt;" style="rounded=0;whiteSpace=wrap;html=1;" parent="1" vertex="1">
          <mxGeometry x="480.00000000000006" y="210" width="50" height="37.06" as="geometry" />
        </mxCell>
        <mxCell id="YMDonVfkHX1IOAZZHgD1-39" value="&lt;span style=&quot;font-size: 10px;&quot;&gt;ACP&lt;/span&gt;" style="rounded=0;whiteSpace=wrap;html=1;" parent="1" vertex="1">
          <mxGeometry x="530" y="210" width="52" height="37.06" as="geometry" />
        </mxCell>
        <mxCell id="YMDonVfkHX1IOAZZHgD1-45" value="&lt;b&gt;User Experience&lt;/b&gt;" style="rounded=0;whiteSpace=wrap;html=1;strokeColor=none;rotation=270;" parent="1" vertex="1">
          <mxGeometry x="27.94" y="133.81" width="71.25" height="40" as="geometry" />
        </mxCell>
        <mxCell id="YMDonVfkHX1IOAZZHgD1-46" value="&lt;span style=&quot;font-size: 10px;&quot;&gt;Winsurf&lt;/span&gt;" style="rounded=0;whiteSpace=wrap;html=1;" parent="1" vertex="1">
          <mxGeometry x="557" y="130" width="70" height="40" as="geometry" />
        </mxCell>
        <mxCell id="YMDonVfkHX1IOAZZHgD1-47" value="&lt;span style=&quot;font-size: 10px;&quot;&gt;CrewMate&lt;/span&gt;" style="rounded=0;whiteSpace=wrap;html=1;fillColor=#d5e8d4;strokeColor=#82b366;" parent="1" vertex="1">
          <mxGeometry x="121" y="130" width="90" height="40" as="geometry" />
        </mxCell>
        <mxCell id="YMDonVfkHX1IOAZZHgD1-51" value="&lt;span style=&quot;font-size: 10px;&quot;&gt;VS Code&amp;nbsp;&lt;/span&gt;&lt;span style=&quot;font-size: 10px; background-color: transparent; color: light-dark(rgb(0, 0, 0), rgb(255, 255, 255));&quot;&gt;IDE&lt;/span&gt;" style="rounded=0;whiteSpace=wrap;html=1;fillColor=#d5e8d4;strokeColor=#82b366;" parent="1" vertex="1">
          <mxGeometry x="212" y="130" width="80" height="40" as="geometry" />
        </mxCell>
        <mxCell id="YMDonVfkHX1IOAZZHgD1-52" value="&lt;span style=&quot;font-size: 10px;&quot;&gt;Cursor&lt;/span&gt;" style="rounded=0;whiteSpace=wrap;html=1;" parent="1" vertex="1">
          <mxGeometry x="479" y="130" width="78" height="40" as="geometry" />
        </mxCell>
        <mxCell id="YMDonVfkHX1IOAZZHgD1-59" value="&lt;font style=&quot;font-size: 16px;&quot;&gt;&lt;b&gt;Agentic Mesh&amp;nbsp;&lt;/b&gt;&lt;/font&gt;&lt;div&gt;&lt;font style=&quot;font-size: 14px;&quot;&gt;(based on McKinsey Scalable AI Architecture )&lt;/font&gt;&lt;/div&gt;" style="rounded=1;whiteSpace=wrap;html=1;shadow=1;" parent="1" vertex="1">
          <mxGeometry x="118" y="30" width="540" height="49" as="geometry" />
        </mxCell>
        <mxCell id="FRUZjQZHrvY_33S5YqQ4-4" value="&lt;span style=&quot;font-size: 10px;&quot;&gt;Agent&amp;nbsp;&lt;/span&gt;&lt;div&gt;&lt;span style=&quot;font-size: 10px;&quot;&gt;Registry&lt;/span&gt;&lt;/div&gt;" style="rounded=0;whiteSpace=wrap;html=1;" vertex="1" parent="1">
          <mxGeometry x="480" y="247" width="52" height="37.06" as="geometry" />
        </mxCell>
        <mxCell id="FRUZjQZHrvY_33S5YqQ4-6" value="&lt;span style=&quot;font-size: 10px;&quot;&gt;IAM360&lt;/span&gt;" style="rounded=0;whiteSpace=wrap;html=1;" vertex="1" parent="1">
          <mxGeometry x="569" y="611" width="60" height="30" as="geometry" />
        </mxCell>
        <mxCell id="FRUZjQZHrvY_33S5YqQ4-7" value="&lt;span style=&quot;font-size: 10px;&quot;&gt;IT360&lt;/span&gt;" style="rounded=0;whiteSpace=wrap;html=1;" vertex="1" parent="1">
          <mxGeometry x="629" y="611" width="60" height="30" as="geometry" />
        </mxCell>
        <mxCell id="FRUZjQZHrvY_33S5YqQ4-9" value="&lt;font style=&quot;font-size: 10px;&quot;&gt;Crew&lt;/font&gt;" style="rounded=0;whiteSpace=wrap;html=1;labelBackgroundColor=none;textShadow=0;fillStyle=solid;fillColor=#D5E8D4;gradientColor=none;" vertex="1" parent="1">
          <mxGeometry x="121" y="611" width="60" height="30" as="geometry" />
        </mxCell>
        <mxCell id="FRUZjQZHrvY_33S5YqQ4-10" value="&lt;span style=&quot;font-size: 10px;&quot;&gt;Access&lt;/span&gt;" style="rounded=0;whiteSpace=wrap;html=1;fillColor=#D5E8D4;fillStyle=solid;" vertex="1" parent="1">
          <mxGeometry x="200" y="611" width="50" height="30" as="geometry" />
        </mxCell>
        <mxCell id="FRUZjQZHrvY_33S5YqQ4-11" value="&lt;span style=&quot;font-size: 10px;&quot;&gt;Support&lt;/span&gt;" style="rounded=0;whiteSpace=wrap;html=1;fillColor=#D5E8D4;fillStyle=solid;" vertex="1" parent="1">
          <mxGeometry x="331.97" y="611" width="51" height="30" as="geometry" />
        </mxCell>
        <mxCell id="FRUZjQZHrvY_33S5YqQ4-15" value="&lt;span style=&quot;font-size: 10px;&quot;&gt;Product&lt;/span&gt;" style="rounded=0;whiteSpace=wrap;html=1;fillColor=#d5e8d4;strokeColor=#82b366;" vertex="1" parent="1">
          <mxGeometry x="262.97" y="611" width="60" height="30" as="geometry" />
        </mxCell>
        <mxCell id="FRUZjQZHrvY_33S5YqQ4-16" value="&lt;span style=&quot;font-size: 10px;&quot;&gt;CoPilot&lt;/span&gt;" style="rounded=0;whiteSpace=wrap;html=1;fillColor=#d5e8d4;strokeColor=#82b366;" vertex="1" parent="1">
          <mxGeometry x="292" y="130" width="60" height="40" as="geometry" />
        </mxCell>
        <mxCell id="FRUZjQZHrvY_33S5YqQ4-17" value="&lt;span style=&quot;font-size: 10px;&quot;&gt;Tool&lt;/span&gt;&lt;br&gt;&lt;div&gt;&lt;span style=&quot;font-size: 10px;&quot;&gt;Registry&lt;/span&gt;&lt;/div&gt;" style="rounded=0;whiteSpace=wrap;html=1;" vertex="1" parent="1">
          <mxGeometry x="532" y="247" width="50" height="37.06" as="geometry" />
        </mxCell>
        <mxCell id="FRUZjQZHrvY_33S5YqQ4-18" value="&lt;font style=&quot;font-size: 10px;&quot;&gt;ESF&lt;/font&gt;&lt;div&gt;&lt;font style=&quot;font-size: 10px;&quot;&gt;Chat&lt;/font&gt;&lt;/div&gt;" style="rounded=0;whiteSpace=wrap;html=1;labelBackgroundColor=none;textShadow=0;fillStyle=solid;fillColor=#D5E8D4;gradientColor=none;" vertex="1" parent="1">
          <mxGeometry x="120.97" y="350" width="68.03" height="40" as="geometry" />
        </mxCell>
        <mxCell id="FRUZjQZHrvY_33S5YqQ4-19" value="&lt;b&gt;Infra-&lt;/b&gt;&lt;div&gt;&lt;b&gt;structure&lt;/b&gt;&lt;/div&gt;" style="rounded=0;whiteSpace=wrap;html=1;strokeColor=none;rotation=270;" vertex="1" parent="1">
          <mxGeometry x="24.69" y="677" width="67.5" height="40" as="geometry" />
        </mxCell>
        <mxCell id="FRUZjQZHrvY_33S5YqQ4-20" value="&lt;span style=&quot;font-size: 10px;&quot;&gt;Storage&lt;/span&gt;" style="rounded=0;whiteSpace=wrap;html=1;fillColor=#D5E8D4;fillStyle=solid;" vertex="1" parent="1">
          <mxGeometry x="120" y="680.75" width="78.75" height="36.25" as="geometry" />
        </mxCell>
        <mxCell id="FRUZjQZHrvY_33S5YqQ4-21" value="&lt;span style=&quot;font-size: 10px;&quot;&gt;Container&lt;/span&gt;" style="rounded=0;whiteSpace=wrap;html=1;fillColor=#D5E8D4;fillStyle=solid;" vertex="1" parent="1">
          <mxGeometry x="199" y="680.75" width="90" height="36.25" as="geometry" />
        </mxCell>
        <mxCell id="FRUZjQZHrvY_33S5YqQ4-25" value="&lt;span style=&quot;font-size: 10px;&quot;&gt;CI/CD&lt;/span&gt;" style="rounded=0;whiteSpace=wrap;html=1;fillColor=#D5E8D4;fillStyle=solid;" vertex="1" parent="1">
          <mxGeometry x="289" y="680.75" width="61" height="36.25" as="geometry" />
        </mxCell>
        <mxCell id="FRUZjQZHrvY_33S5YqQ4-26" value="&lt;span style=&quot;font-size: 10px;&quot;&gt;Code Repository&lt;/span&gt;" style="rounded=0;whiteSpace=wrap;html=1;fillColor=#D5E8D4;fillStyle=solid;" vertex="1" parent="1">
          <mxGeometry x="350" y="680.75" width="100" height="36.25" as="geometry" />
        </mxCell>
        <mxCell id="FRUZjQZHrvY_33S5YqQ4-27" value="&lt;span style=&quot;font-size: 10px;&quot;&gt;Access&amp;nbsp;&lt;/span&gt;&lt;span style=&quot;font-size: 10px; background-color: transparent; color: light-dark(rgb(0, 0, 0), rgb(255, 255, 255));&quot;&gt;Management&lt;/span&gt;" style="rounded=0;whiteSpace=wrap;html=1;fillColor=#D5E8D4;fillStyle=solid;" vertex="1" parent="1">
          <mxGeometry x="450" y="680.75" width="130" height="36.25" as="geometry" />
        </mxCell>
        <mxCell id="FRUZjQZHrvY_33S5YqQ4-29" value="&lt;span style=&quot;font-size: 10px;&quot;&gt;VPE&lt;/span&gt;" style="rounded=0;whiteSpace=wrap;html=1;fillColor=#D5E8D4;fillStyle=solid;" vertex="1" parent="1">
          <mxGeometry x="259" y="350" width="39.97" height="40" as="geometry" />
        </mxCell>
        <mxCell id="FRUZjQZHrvY_33S5YqQ4-30" value="&lt;span style=&quot;font-size: 10px;&quot;&gt;Back&lt;/span&gt;&lt;div&gt;&lt;span style=&quot;font-size: 10px;&quot;&gt;Stage&lt;/span&gt;&lt;/div&gt;" style="rounded=0;whiteSpace=wrap;html=1;fillColor=#D5E8D4;fillStyle=solid;" vertex="1" parent="1">
          <mxGeometry x="349" y="350" width="50" height="40" as="geometry" />
        </mxCell>
        <mxCell id="FRUZjQZHrvY_33S5YqQ4-31" value="&lt;span style=&quot;font-size: 10px;&quot;&gt;Honey&lt;/span&gt;&lt;div&gt;&lt;span style=&quot;font-size: 10px;&quot;&gt;Comb&lt;/span&gt;&lt;/div&gt;" style="rounded=0;whiteSpace=wrap;html=1;fillColor=#D5E8D4;fillStyle=solid;" vertex="1" parent="1">
          <mxGeometry x="298.97" y="350" width="50" height="40" as="geometry" />
        </mxCell>
        <mxCell id="FRUZjQZHrvY_33S5YqQ4-32" value="&lt;span style=&quot;font-size: 10px;&quot;&gt;Stack&lt;/span&gt;&lt;div&gt;&lt;span style=&quot;font-size: 10px;&quot;&gt;Overflow&lt;/span&gt;&lt;/div&gt;" style="rounded=0;whiteSpace=wrap;html=1;fillColor=#D5E8D4;fillStyle=solid;" vertex="1" parent="1">
          <mxGeometry x="279" y="310" width="70" height="40" as="geometry" />
        </mxCell>
        <mxCell id="FRUZjQZHrvY_33S5YqQ4-40" value="" style="ellipse;whiteSpace=wrap;html=1;aspect=fixed;fillColor=#f5f5f5;fontColor=#333333;strokeColor=#666666;" vertex="1" parent="1">
          <mxGeometry x="760" y="200" width="240" height="240" as="geometry" />
        </mxCell>
        <mxCell id="FRUZjQZHrvY_33S5YqQ4-41" value="&lt;font style=&quot;font-size: 16px;&quot;&gt;&lt;b&gt;DPMLC&lt;/b&gt;&lt;/font&gt;" style="text;html=1;align=center;verticalAlign=middle;whiteSpace=wrap;rounded=0;" vertex="1" parent="1">
          <mxGeometry x="848.64" y="212.47" width="60" height="30" as="geometry" />
        </mxCell>
        <mxCell id="FRUZjQZHrvY_33S5YqQ4-42" value="&lt;font style=&quot;color: rgb(0, 0, 255);&quot;&gt;&lt;b&gt;Product&lt;/b&gt;&lt;/font&gt;&lt;div&gt;&lt;font style=&quot;color: rgb(0, 0, 255);&quot;&gt;&lt;b&gt;Manager&lt;/b&gt;&lt;/font&gt;&lt;/div&gt;" style="text;html=1;align=center;verticalAlign=middle;whiteSpace=wrap;rounded=0;" vertex="1" parent="1">
          <mxGeometry x="850" y="242.47" width="60" height="30" as="geometry" />
        </mxCell>
        <mxCell id="FRUZjQZHrvY_33S5YqQ4-43" value="&lt;b&gt;Research&lt;/b&gt;" style="ellipse;whiteSpace=wrap;html=1;aspect=fixed;dashed=1;strokeWidth=2;fillColor=#FFFFFF;" vertex="1" parent="1">
          <mxGeometry x="771.5" y="286" width="53" height="53" as="geometry" />
        </mxCell>
        <mxCell id="FRUZjQZHrvY_33S5YqQ4-45" value="&lt;b&gt;Problem&amp;nbsp;&lt;/b&gt;&lt;div&gt;&lt;b&gt;Discovery&lt;/b&gt;&lt;/div&gt;" style="ellipse;whiteSpace=wrap;html=1;aspect=fixed;dashed=1;strokeWidth=2;fillColor=#FFFFFF;" vertex="1" parent="1">
          <mxGeometry x="820" y="339" width="53" height="53" as="geometry" />
        </mxCell>
        <mxCell id="FRUZjQZHrvY_33S5YqQ4-46" value="&lt;b&gt;Solution&lt;/b&gt;&lt;b style=&quot;background-color: transparent; color: light-dark(rgb(0, 0, 0), rgb(255, 255, 255));&quot;&gt;&amp;nbsp;&lt;/b&gt;&lt;div&gt;&lt;div&gt;&lt;b&gt;Discovery&lt;/b&gt;&lt;/div&gt;&lt;/div&gt;" style="ellipse;whiteSpace=wrap;html=1;aspect=fixed;dashed=1;strokeWidth=2;fillColor=#FFFFFF;" vertex="1" parent="1">
          <mxGeometry x="888" y="339" width="53" height="53" as="geometry" />
        </mxCell>
        <mxCell id="FRUZjQZHrvY_33S5YqQ4-47" value="&lt;b&gt;Release&lt;/b&gt;" style="ellipse;whiteSpace=wrap;html=1;aspect=fixed;dashed=1;strokeWidth=2;fillColor=#FFFFFF;" vertex="1" parent="1">
          <mxGeometry x="938" y="289" width="53" height="53" as="geometry" />
        </mxCell>
        <mxCell id="FRUZjQZHrvY_33S5YqQ4-48" value="" style="ellipse;whiteSpace=wrap;html=1;aspect=fixed;fillColor=#dae8fc;strokeColor=#6c8ebf;" vertex="1" parent="1">
          <mxGeometry x="761" y="398" width="240" height="240" as="geometry" />
        </mxCell>
        <mxCell id="FRUZjQZHrvY_33S5YqQ4-49" value="&lt;font style=&quot;font-size: 16px;&quot;&gt;&lt;b&gt;SDLC&lt;/b&gt;&lt;/font&gt;" style="text;html=1;align=center;verticalAlign=middle;whiteSpace=wrap;rounded=0;" vertex="1" parent="1">
          <mxGeometry x="847" y="602" width="60" height="30" as="geometry" />
        </mxCell>
        <mxCell id="FRUZjQZHrvY_33S5YqQ4-50" value="&lt;font style=&quot;color: rgb(255, 51, 51);&quot;&gt;&lt;b&gt;Developer&lt;/b&gt;&lt;/font&gt;&lt;div&gt;&lt;font style=&quot;color: rgb(255, 51, 51);&quot;&gt;&lt;b&gt;Engineer&lt;/b&gt;&lt;/font&gt;&lt;/div&gt;" style="text;html=1;align=center;verticalAlign=middle;whiteSpace=wrap;rounded=0;" vertex="1" parent="1">
          <mxGeometry x="846.41" y="561.06" width="60" height="32.94" as="geometry" />
        </mxCell>
        <mxCell id="FRUZjQZHrvY_33S5YqQ4-51" value="&lt;b&gt;Plan&lt;/b&gt;" style="ellipse;whiteSpace=wrap;html=1;aspect=fixed;dashed=1;strokeWidth=2;fillColor=#FFFFFF;" vertex="1" parent="1">
          <mxGeometry x="773" y="525" width="50" height="50" as="geometry" />
        </mxCell>
        <mxCell id="FRUZjQZHrvY_33S5YqQ4-52" value="&lt;b&gt;Analysis&lt;/b&gt;" style="ellipse;whiteSpace=wrap;html=1;aspect=fixed;dashed=1;strokeWidth=2;fillColor=#FFFFFF;" vertex="1" parent="1">
          <mxGeometry x="773" y="468" width="50" height="50" as="geometry" />
        </mxCell>
        <mxCell id="FRUZjQZHrvY_33S5YqQ4-53" value="&lt;b&gt;Design&lt;/b&gt;" style="ellipse;whiteSpace=wrap;html=1;aspect=fixed;dashed=1;strokeWidth=2;fillColor=#FFFFFF;" vertex="1" parent="1">
          <mxGeometry x="804" y="422" width="50" height="50" as="geometry" />
        </mxCell>
        <mxCell id="FRUZjQZHrvY_33S5YqQ4-54" value="&lt;b&gt;Coding&lt;/b&gt;" style="ellipse;whiteSpace=wrap;html=1;aspect=fixed;dashed=1;strokeWidth=2;fillColor=#FFFFFF;" vertex="1" parent="1">
          <mxGeometry x="862" y="409.58" width="48" height="48" as="geometry" />
        </mxCell>
        <mxCell id="FRUZjQZHrvY_33S5YqQ4-55" value="&lt;b&gt;Test&lt;/b&gt;" style="ellipse;whiteSpace=wrap;html=1;aspect=fixed;dashed=1;strokeWidth=2;fillColor=#FFFFFF;" vertex="1" parent="1">
          <mxGeometry x="916" y="434" width="50" height="50" as="geometry" />
        </mxCell>
        <mxCell id="FRUZjQZHrvY_33S5YqQ4-56" value="&lt;b&gt;Deploy&lt;/b&gt;" style="ellipse;whiteSpace=wrap;html=1;aspect=fixed;dashed=1;strokeWidth=2;fillColor=#FFFFFF;" vertex="1" parent="1">
          <mxGeometry x="941" y="493" width="50" height="50" as="geometry" />
        </mxCell>
        <mxCell id="FRUZjQZHrvY_33S5YqQ4-58" value="&lt;b&gt;Maintain&lt;/b&gt;" style="ellipse;whiteSpace=wrap;html=1;aspect=fixed;dashed=1;strokeWidth=2;fillColor=#FFFFFF;" vertex="1" parent="1">
          <mxGeometry x="922.5" y="556" width="50" height="50" as="geometry" />
        </mxCell>
        <mxCell id="FRUZjQZHrvY_33S5YqQ4-59" value="" style="shape=image;verticalLabelPosition=bottom;labelBackgroundColor=default;verticalAlign=top;aspect=fixed;imageAspect=0;image=data:image/png,iVBORw0KGgoAAAANSUhEUgAAALoAAAC3CAYAAAClkEQvAAAABHNCSVQICAgIfAhkiAAAIABJREFUeF7tXQd4FNUTn5DeOxBagCBVQFARBaQjCCgqCvaODRQBASsK9oINCwoCf7GAigXsBaQpHaT30ElICOkhIeE/v829zd7e7vW73IWd77svub3dV+b9dt68efNmAs4ykUEGB2o4B4I82T+8Q+Xl5VRRUUH433inPMntml12QEAA4VOrVi0KDAyU/neEAjwh0QHoM2fOSCA3yOCAJzgAsAcFBdkNeLcDHeAuKyvzRN9cLrO6XzwMjkHu5UBwcLAk4W2RW4EOKY6PrxBUptLSUvnFqw71STnF4n8MCgYHH4PcwwFIdnyskduA7iuSHGDGjAKAqyW4o3qdNcY585tyjYK2REREOKVvOlN3TX/GlmR3C9AxgKdPn65WXgqAox2Q5CDlwgX/i091NFQsysVftBFghyQKDQ21a/qtjnb7U53go54wcwvQIUHV0tObDELdADjUJgAegBbqAf7X67w32yjqQvsAcrQVsw7+hzqDQTLUGddGRKiFWqW4DPTqluYAeWFhoWy6BGBCQkIkcPsSwLWYj7YXFxdLQgIvpFBltO41rtnHAT2p7jLQq3MBqgZKWFiYTako1Br72Oaeu6y9dOhDUVGRLNnxkgoSCyxrz7unhTWnFL2FqctAF9Ovt1mFmQQAwYuGKSs8PFxTzwWQMjIy6MCBA3T8+HE6efKk1y1DaF+DBg2oWbNmlJqaavEyqmclJS8h6cXgiTWGr89U3saCml9KYSF+cxno0I2V1gRvdRIgx9pAb8pHm3bv3k1z586l9evXS0DPzMykgoICebHqrbainuTkZEpjoA8eNIjuu+8+ioyMNKseL6x6/wEvgNhVxs0C9Ji5DLBrjx74AvVFTS4DvaSkRF2mx7/j5UK96BQkudYibubsOTTl2UmUk5MjLfp8hdDePn370vx58yyapCUwcE0sXAF8EACPcmzZji0qOEcuQBCoye+AjoEXUhlTFAZcSfjtueeeo2nTppldByiCA4MkkHib2MuHpTVL7DNVO8ajRo2iF1980W6wikU/Xlr8j5cci1cD7JajWSOArpTmUVFRZsDNzc2lN6ZOpXffeUeS+KCwkFCqnZhEqSn1KCk+kSIjwokt6pbc8eCVsoozdJTXCZt2badTeblSTQkJCTSPpXrXrl0dqhnSHX0zLDX6bNMCuvV9U/2yquUXMY2jckgypXQGAH5YuJA+mTlTBnlsVDR1aNGGmjRoSOHBrLexJKwuikuN4pcuhFZuWkf5bA7Ny8uj77//njp16qS5iNbz30C/MYsJsyT+Qt83dHbrI+tXqgvAjIHFAi0mJsZscGFZ6devH+3atUvqMSR5n85dqUFyHZbfjrl0WmeZ878Wl5XSX2v/oQNHD0uFAKCJiYmaBUItueWWW2jo0KHUqFEjCyCDB9g/wF8tFU6z0HPkopZE9yugQz8F0CHV1FaLGTNmEPReQb06XUatUtPorMkdwBfGuPxsBf217l/afWC/Q82ZPHkyjRgxgmJjY82eg5UG1ieQ+sV3qIIadrMW0L2rrLrAUKXaorayQKp99NFHculJcfHUqnEznwK5C12nZ555hkaPHi2ZSJWk3ByBADBInwN+paOLXU215eTQoUO0efNmuZed2nbwC5BHs+pSv3ZdClL5U5eVsWtAaQkdzz4hm0YXLFggSfRJkyZRfHy81Ffo5QC72J0Gf9S80R/6c+sXvwK6sDOrB/O/LVvNRi0BU3w1LjzthVBUeCQ1b9iUQoPMfdPRzwr+nCrIow27t1IOW5OgtsH23rd3Hxo4eJBcBYAuFqIAvNauoL3tqcn3+ZXqouenkptzUh6j5IRECgn0j0MNAGgt6cMGT8UnsBYfzmCbf3JsArVv1opCgyv9X3JOnaIlS/+W9XJ0GtYZlIOXQ2wo1WTAOts3vwG6tQ6WmnYMrd3jr7/ViUuixNhKVQV92PTff7L5VPTJ2DSyPbo1Aui2u+nfdzSp31DuwGFej6hdGgwbuu3xNYBum0fVfkewQodXnqCq9ob5UQMMoPvRYBlNdZ4DBtCd553xpB9xwAC6Hw2W0VTnOWAA3XneGU/6EQcMoPvRYBlNdZ4DBtCd553xpB9xwAC6Hw2W0VTnOWAA3XneGU/6EQcMoFfrYFXfiadq7XY1VG4AvRqYLqos5QPT8Dg0yPMcMIDueR7r1lB6ppRK+OMjJ/1021kTfjCAXo2jiEPSOUV5/uA6X41cck/VBtDdw0e7Siljd+IyhaoCH/LME1mG+mIX91y7yQC6a/xz6OnTrKacLjWPI3/o+FHKzq06OOJQgcbNdnPAALrdrHLtRthXTnCA05N8SkhNG/fuoKIy74f2U7ejJn83gO6l0S2rKKfdB/fTaY7toqbc/DxatnGNAXY1Y9z4vUYAPUIRPbWUdWDET/ElKufYizsO7af9Rw7JzRp58zAaemV/+dQ+QtWt3rKRCko4qYEvNb6GtMVvgI7jYnph2lq0aCEPRy4D5uiJDMSCqPYhOstNyD9dRKu2bqLla1fJ7WnetAk9cuP1NGroILqg5XnyKf6Mk1m0atsmOpadQaXlvpnCstqZ6mQD/Abo6J8Ic6E+7d66dWsp9rig1Vs20f5jhwmSNAA5jKrhU8KRc3ceSqe/162mzRxcVFC92rXppdEPUd3oMGrXJJWmPDiCmnKSAEFZHNFg3c4ttHbHf3TgxBEqZN0dQUoNco0DfhOSDqY4RJHFwWCtWINffPEF3XXXXTI3QjmgJ4KMxsfGucYhJ57OyK40GZayPg5zoohHUzsxgV56dBQNuexCCjJNOAG1guhIbgE9OOVlWrxmvVltwRyzBSf8EebjtCnGe7169WjZsmWEv4LAF5wl1eKLE833+0e0QtL5DdDBfWuxBhFw8+mnn6bp06dXS0YLa+gAYBvXS6EXR4+kvhe2pQANCV14NpCmzp1HsxZ8TzkcabeiQltTB8CXL19OKSkpBtB1mK4FdL+K1CViDYqouog4KwhBR3v37i3FHEeeIl+gKG5fC1ZPurRvS/decxU1qJNAAeXaakhkQAU9cev1NOCSC2n2ol/YQnOE9nCsxaxTlfHURX9qs+pjxHFxfHT9CuhYkGJ6ho4u4g3qDXo4p/cY0ONyiuT7z+iAy3F22fdELAM8Jhrh5upTh+bNWJrXpRBeDVVYbcdZQkb7i1ukUdu0++hodi59xNL9/XkLpErxUl977bU0ePBgi6i66jWLfa08t+7yK6BjaBBJF6GSAXq9EHUSMMJCacSQQdQhLdXrcRgDefFbweoJVJbAWggXV8Hf7QMW7g0NrEWpyfH8glTp4Qgw+sRTT1OjBvXNrE8AuTK3kX21nHt3+R3QMUSwvogFnv6QBXAygGCKCMFirjLJlf69HviFYyeCbLdTu27kPVJSAMdm1Eq4i3UL6gBP9GY37RrOrat+ZV48t4bGdm8BchGeDjOd3j6D7ZJq/h1+B3SoK85KyZo0nOAB1in4C4Ab4aKtj67fAd0AueWAQm1Rx4y3vOvcvuJ3QD+3h8vovbMcMIDuLOeM5/yKAwbQ/Wq4jMY6ywG/BLqhpzs73Ofuc34JdHszPOj5i/jLcGt7u/hL632rnX4HdJGcSouNSusDsrqVlFQmm9W619evSe1nO7kguNer0zSK3wyLi+3R9DugW+tSWHg4yZ5rDJSy0mrYEbXWQEd+Y3FervBgBJjDQiuz06mLMYCu5ojld78FOvR0ta4eEx0tpQoHlfO2f25hgWWP/eQKNsZE+nM0uUGdFApVHBn0k274TDP9FuhaHIxgV91w/oAQ7u1Qxgn/PX/JBzKyc/PlbtZLbWjhyyKc2gwfFy00mF/zS6CLgVV7L0ZFRVE0f0DYHj+ckcHH0PxzSXeG9fPjmSfk0WratKnFaKr7b3GDcUHmgF8CXVhd1H4v8XFxFIf06AA6u68ezsqmEj5i5o+UX1ZOuw5WRQ1QHgBHf7RUN3/sp7fa7JdAF1566sEO58VovbopshffqfwCyskv9BYv3VpP5qkcSj9yRC6zTZs2FuULhy57za0WBZxDF/wS6HBJBamBjhegVZvWsuUlK5sjY+Xm+UToC0cwBeDuSj/EC+rK0xrob1pamlkRIty0AXL7OOuXQEfXMMAAulpPPb9tWxnoB48dp52Hj/J99jHDZ+4KCqF//9sqN6dLly4UzRYlJYl+W9tX8Jn++EBD/BboWJAC6Orzki05mJGwpRdyGIht+w/QGT9bkOaXnKbvF/8tw6Nv374WUBEHLgwbugVrNC/4LdD19HScrezZs6fc2SVrN1BOif9EvQrkI3hrtu+hTFa7BPXo0cNi8PCSY1YzgG7BGs0Lfgt0oaerU6Ng8K8Zer3c2Q1bt9HeQ4fksG+aXPChi9j6/98PP8ot6njhRdSwUSOzFuIIHQgvuwF0+wbPb4GO7gHU0FXV6svlXS4zi2T12Y+/saOI9va5fWzyzl3SIvRYJi1fv0GuENJc7A2Ii0JtMYBu/7j4LdABCrFxJAZedBsbR3fffbfMhR/++pv2H89i6YfIKb5LZwMC6dslKyiXzaKgunXrUld+aZVb/+LFRv+F+ua7PfKdlvk10KG+YMDFVK5k69DrrqNEU9zFXA5X9978BXSGt9V9ldCPgxlZtGTVGjnOYrt27ahjx45mapfSrCjUN1/tky+1y2+BDiZCogmppgZ7fY5Qe92wG2ReL/j9T9q6Zx9H1vVNqV5WXkELli6nFRs2SW1GDJcr+venOnXqmOFFnPw3/Fsce438GuhYiAmgI6Ks0psRQOnXrx8lJydLHDmVl08ffv09nSrwTR/1wxyC7pvfFsuj15zNpEOuvtoC5EKiG+EtziGgo6tCsgHkSgsMVIGuXbvSoEGDpHvg+/LT8n/ol1Xrzfy8HWOXZ+6u4IXyK7M/o/927ZYrePzxJ80W1OifiMqlnMk80yJ2czbFt8T6ByGp9T74XRkWz1PtcbVc31Va7ewZQAxdVUStUloiYFO///776ccff6TMzEx2B8ilV2Z9Rt0u6kD1OBC/LxBAPufHP+ir3/6UmzN8+HC6csAVZs0D0MWiGz497ibwD4ICoFW7VihnSnW9ECgg3CNOeGEMMC6+pF75teoimC6mcQyU2q6OBd2jjz4q25v3HjpID7/8BuVJ0ZurN/0Lb/nQPxu30OQPPpbzj0Inf+aZZyxAAtUMBPC4ajsXQAavcLgjlwUA/grprAQ2gCwArPVXAB1/xawK6Y949Xkc5x3tVnuZinHz5l+/SgRgjTEi6wOAAP1cDACegbS6+ZZbaeEP38tF3HXVYHryrpsoOS7KTLe3Vodbf+Ogoat4B3TMG+/QFl4kg5KSkuiFF16gm266yQzoACSAA0LfnLW2CCBCaoMnwl8GvBKAFjMi/oprtvot9jHwV5g/UZcS4Eop72lJ7/eJAKwxHFJdTL+QKMrOAhivv/46FRbk019//SUV89kvv7AFhmjcbTdSvQR2mOKB8RZJ2/w799G4t9+XQY723nnnnXQ1L0CVQABYhDRHH50FCaQ1+CNUE/RVqBdKUCsFhL38EAYB8Ve8QEJ3FyoRvqMdqBdj4uwLa2+7lPfVGImOToGJxcXFUv+QAUMJCkiYdevW0UMPPUT//fefdE8IM/sqThbw+rhRFI9I/V4ggPyf7bvpxgnPmGWzQID/jz/+2CLIP/qDfgGAkOaOAh3gQhlK6QqACbA5A2xH2SSkO9ohpD/qxYuBF1y8II6Wq3e/lkSvUUDHYIKZkCDQJ7FDqh7IxYsX04MPPkjp6ekyn1o1bUYznxtPLTgzRZAH8Z7PzmVf8c7nM9OmU75JFQHoOnXqRIsWLTKbhdA4SGD0B0DB4DlyOFrMBCgD5Aywytm2X85ZOiwWqQCpybQLPuOlsResaI8wBYu1APqFj3qs9IBs63qNBzoYgEEREgwDAAuFevH2+++/03W8cypAgOeieQYYfftNdFW3zpSWUpeCAyx93W0xWOt3BPAv4TZtZFVl5sJfaOHiJVR0uip7dO8+fWjmjBkWG0OQfFggArAAgdbgadWnXBCiDIDHXlUBADxx4oRkodq/bx9lZmXRqZxTlMMpIbGwLOLfy7kvAHUU8wuCBB/sVWAR3Yidz+rXry+tNWzZ+TFOUDGFKqWU7q4CXotXfm9eVA+2kC5iUQRGqoGOgwx4AZRAh4R9bcZs+nX5ShrSozsN7nYZNaqbJCXXQroVRwkqSlFpGW3YvZvm/vQbW1c2055Dhy2KaccHRUSIDuWPAIHQdW2BRjyH+/GcMEOi33hJMGvogQfPHD58mFYsX0FL/2afoAPpEtAP8IxXZFIDLRqtcQH8TE1NlWz/DRs2pM6dO9Pll18ugV9L3RLjpFw74MVGX90p3UVTa5Tqgk6BcWJqxABjANSDDIY2adJEklJahPxHiWyDH9ClMw0f1J/Ob5ZGkSzhAXhM5XoEYJUHhnA8mUL6e8MWmv/Tz7Ry01Y6la+fThGmT6SNVNvGlRId5apPGKnbAEmOfgnzql7fxXO4b9XqtTRj+oe0fCU7krGJEZYd8XKpy3fkO9qL9QSkfffu3aV10cUXX6xbBNqOWVgIHrQdzztLWhLdJ4AudDVnOyaeU+p/0vRqCn0hfkc94p7zzjtPBvrDNw+nb379nQ9SF7BaYRk1II1zhPa69BJq17IFNalXh1I4BWItmGxMVFCYT8dO5tE+Ps30L/u//8J5QEsU6gluw8sWw9N9f355tu8/xLugO6WnR48eTRMnTrRYPOM3sZAUsxIW2OqXFvcJkAtVBS+NlkUDIM7Pz6c1a9ZIVqi/WYKrCSAFUFCGsPI04APnqfyyx5qCQ+GZPObVnt27KAMhRVjvPs39LSkplu3m6nIB+LFjx0rrEcxgWv1AOWJNgt+dWXyjXp8BOhiOwRHqhfgff10BvZBGWhIBv23ZskVa9AEQb775pmyh+er5ydSZs9d9ungpLfxnFf23dx8VsnR0FzWok0ydWrakG7t3o24d29FNk16gvzZtlorv1asXYVOrYWpjgsdl7eQks2qVaw4MvhZARL+FnqulKkDaL16yhD777DP6iXeKoeIoCXp1C27jeU3TqE3b8+miiy6S1I7ExESri2CUA71+X/oB2rr5P9qwcaOk3+/evYdfguNmdQj/o9tvv526dO3GfvaVwaaUN6G/mJHFyw3Qar20ZgWrvlQ70DEgYvdNgN0VYGt1FlIIHVUDYseu3XT/fSNo1b//WjwGoPdv0YTOsJQ+fOoUrdq9j/7dspX+XLeB/dgzLO635wICgrZnKdiz4wXUvV0b6sCgiWOVqIzruPrZF2mpycQpygrlNt9zzz00/rHHCElzlaQEu17dADf6rWX92LFjhyTBlzDQjyhCaKCsVq1a0cCBA+mSSy6hNuefTynsA68FFL16ldcxlsV83jXj+DHasXMnLV26jBYt/IH27t1rJsCgx/fi5MdjWG1D/WpSq22YXbReXvVz4rtW+72mugj9UQlsgFEsShx9a/U6qSX1Dh89Tl0vu5QXWRmaM8Zbo0fRiN7dqJwHid8QKYxdMev6pziI0MZ9+2n51p30Dw/c2s1b9KqVrseyatG1Q3vqdUFbuoBVo2YJcRQZHEShDEKumAJ4gXryTDkNeGISuwzvtSgLi7D7HniQnnn6KYpU6ai2ZjutfqOCH374gR5//HHJnCokP65DfZg8eTJdeeWVktXE3QtAtLeE+QmLzUJeq4weNdKsv1CRWrduTVOef5768eFvtcEAbRVrBkfVGK8DHZ0Vi0PRS3RImLsceUstUGHHBTALkvzK/ldIuiQIdULq48VT0vCe3enR4UMZnPEUAhcYbruSarG0zC9j5peeppN5hXT0xHFCrN4gvjc5Loni46IpmcEZzob4cvilKJ/nlyefp/ilu9Np0idzaOfBg3LRsEeH83MFBVUBUcc//gSNHzfWAuxmDbLxBQvtd6e9R1Nff022nkDaw9ENM8eYMWMsNqdsFOnSz1jsPs+g/vzzz+kUz5rKl+61116jO+64w2JNhXvEvogjYNcCeuCzTK70QKzy1WWIRZ8wdQmAiYWS+g1WP+/qdzBp03+b6cEH7md9sdL9FQDv2+8KuuW226iILQwn2IyGaRK0hXXMX1atpbzTZTx91yGkOee0vXIzzrLuGHK2nCI5E3RSeAg1SUygNP7gb+3IMIrhbM+BHMEX9wmCDb2Qy1974DC99u0iev2L+XSUbdOCEhISqH//AXTHXXfTbl6c5uTkSD+tWL5Mio3evl17XqQ6bn04duwYvfTSS/TGG6/LzmKQ2FeyivLSiy/Srbfe6pJVQ+6AA/8AfFiPwOwIoO/kGVIQ9jXwYp7PqpPS1ApwS5Ys5qGY0YAjtVqqboaWAHU70AEw4WCF/8Uq3pY9V91YV79v37lLAvmG9eslJkGa9enTl8aytOzSvSddzr7qSbzJcYjtxmA8KI+l/ArWzdfzYvRkQTG1atKYItjUpZbu9rQtgF+q3Rz78c3vfqSpX39Hyzdu4gi/VWE3urGNeey48TT89juoHR+Xa8KRuHZu20ZZphdhIy/qiotL6IIOHRwCO17qCRMm0Ny5c+VmQrg8+eSTNI71/7Zst/e0kNHjD+qFrb1Hjx4UHx9Pu7it+SYT7+bNm6VZF+3Db4LwDMYOYAeeMJa2wK4FdLfq6ALkwh6KBoLJWgskJTMwK6TzZsqxw4ck0IlZQI9h9lyHKUuoK7i/3fltafqs2RSHhR4kBXRxZlz2saM0e+ZM9jP5yKzYMAZq+7SmNP7mYdSXF5MBGmZHvXYUBQbT3D8X06ufz6eTbM4rU0h5LDShM/cZwAdCwisXzdK8wQO4adW/9MTECbSPrRYgLFBvuvFGCRi2eIj7IWBgVYHZUKgGac2a0bvvvEPYJLN340mvX+68DoxgcTxu3DjatWuXVDTWaddeey29/fbbFmoVgC7UO2H61GuPluriNqBLK26T0R9TCyQ4PlqE+7Kys+nfVasl19mFvGASHnpa97tyDW3pwCrAnHnzKUhnEyIyJJQ2r19DU6ZMoU2SJK10DBP13jtkCD04sB81jImgED5zqunFzvUUMqCX795Pk2Z+SlvTK8EqyoCU6tO3Hz3ML2BSSj3NLgWzYFjDasu4MY9aWEc0H7ByEZIQqsC7774r2a59lf755x8aMWIE7dmzR27iXXfdRa+++qq0tyCocnFbIgtBPVs87vcY0JWSHAwW27hq5mIVvWb1avrtt99owbff0oEDB9S3uP072vIdr/qbNG9htWy8EEU8jX7z1Xz6je3Ma9asNrs/mfXp+68eTFdd3JFasF08gPVxQTBLbkg/TLP+WEILV67k86m58m9xcfFsk76Q7rp3BHW49DKrbcCPIayDvjTpaZrBnoyuEHYiX3nlFbr00ktdKcYrz65du5YeGf0orV+3Vq7vkUcekdQt5Y4wcAYjAqQ71BP1uQPxsMeAjsoxFQEs6l05oafv3Z9OH7z/Hi1i6X2QI2fhDVVTGM8AKSztIqLZ61Bbbqof0f2+hTcvBPXn0/RvfjRD9171D1lsa/5p0UL64rO5kllOUHhoGLVlXfr2AX1oMAM+kdWyHewn8t6Pv7Juv93MmoIXvuMFHeh2ji/TuVs3ik9MojLTwlddn/gOC8zWjRto7CMP0z62PYPiOOZ7PXaUshaTZtfOHWbqXvMWLel/c2ZT+/bt9aryuevrN2xku/poWrVqldQ24AgnrUaOHGlmQwfOhMUMgNbSGjwCdOjU2B2zpq788vsf9MCIeymb1RWhvwtOY6Pi+uuvp3YdLqQE3p2L5d2ykKBAKmJ7s7MUzs9P5AXZl19+KRUB0D3KKsPIMWPZmqHvqyLqg/4OL71MfiHfeWsqLVy40KzdUawCNaqdTINY7/2O9eE9R49Z+IhMfv4FGjTkWgrj/gRw/bYIdRazCe7JCY/Rzz//LJUXwYP93OTnaeA1QzQtDUFsAdrEi+172VwoLDZYA3z33XfUgRex/kTo7y98GObhhx+W1bamTdPoI147dbnMfCYUghVSHS+EenHtEaBj+xeNxJulrgAvwCeffCK9mWIhgRcCUqpnr940kjuFMM/l5a5t/WsN6ImsE3TDtUNoJ+8KguJYR57+8UzqyOatM9xeR2jjvytpDE+leKnV+rsoB/2C3tiHNz8eGz+RYnmH0RHCizV3xsf08osvSI9h8OBK/Mobb/Bgah/3y2MVCRsxv/z8k/QM+A/XhtvYfKoefEfaUp33vvfeexJehNQeesMwXky/LWcyEW2DORJagdbCVI1DPOOyeREAhkVA7W0GkM+ePVvSE0+erIwMCycrRLp97oUX6X7eAaxdpy6D3DHQ2TsI0O0Q0m0lO1iBaVjsHkzfTxfzDBJtiuBlb1l1GzTkWecGSmQ9fc8eNomxJUVNMBeOf+JJuuOeeyncwfKxCF3HFpdXX3pRFggQAFNefpn9vFM01TwM8rfffk1z58yRZlRYLADwBx54wGIsRFshkDCjQsetzg9eQj1beIuWrWjr9m2ygNq2dSu14R1UmB3VpPTUVJbnEfMiJDpArjZ/wcz11FNP0fHjlY49WEHDJXXYjXwgmQHujazOJaeLaeprr9LH06dLYMCbjs2ZR8Y9hi1SNd+sfoelZS9vckxgPXLLlkqHLOUD/QdcSW+//wFVMGgdpRKeKW4efgNtYzu6oO++/546d+mmy6eTWRk0jF++rVsr3RJw8AFTf0t2zFITXvI//vyTVq5YQUePIjGC5fpI/YynvgOQOJxxGasjXbtdzh6R5gkOUO8BVhmHspkRTnggJCqDAQPPCUIfIGQlFY/xp3Qh0ZLoLpsXsbWrXhBgQXHVVVeZ+XvPmjWLBgwcxHuNyv1GT7GzqtzC/Fzq3q2rNMAgTHUffvghderZ26HKc9lnYwz7Va/6Z6W8m6osAC/6cLZ5j3/qGQrRMWPqVXjvzTfS8mXL5J9f5N3Le3jGO8Px5UhhAAAeF0lEQVS+NloUFBJMH0x7h55lP3YB2jks2bHWUUvKdWwuffC+++gAux1gN1i9RtIq39PXhHfphRdeKM34MIOqaeGin+iG66+TL9/LJsh32L6uJOy3QJWEBFeaIrWAbnuVpG6B6rt6msDpFIRrEIca8La9/d77vKC6jnif1Ot5P2PiE+jL+fPlrWUwBm6iJ3mjyF7K48RZo3gxvZJt3MJloE5qGg16YALFJqdwMbx4ZXXgM96NnPHeu3Ra5UejVw+YP48FwDo2r4EwpeOQ9C0cmkMP5CwQKTcrkybxbClADnXwhhtuMAM5fvuXPTVHsNUHh8FzedbwBZCjn2gHBCQiMsBmDu9KNXW/vCshkJOgH3iGU98HfuGD8mz1zbH5W90a/q5UWVDZLN59FDo5JP0IlibX8DR0ho+VVQeVs/WmRevz6WXegJg4frz8Aj7LHoLPv/IaxbGlB8H39Sh931569bnnaI3J7IX7GrdpTwMfmUzh9ZtQUEwCLf7kLco9cUwqYjqrSaB7HhplVbIDiOtXr+Kt+v/JC1wcBnlw1MMUFKbv31KLpdcc5rEgLIChIqoJC2e45gp1COPUvHEDSk1JpKBAzS0vuYgDx0/S5p37pe/RkeF0fpP6hHWEmgpYHdx18DgVFJVIgDuvYQqd19j6IryUZ6njGdns839IKg5b/zh88tXX35j5p2ONdc0110gqC/CE/nz11Vf0xBNPyJhDn1Av1BdId2sesC4DXdl5OOp89/138i5nB/bhuPGW25ixlVnk1Izy1neAvf/AwbSad2Jnz/pEqhbnIz+bPYtGjBxFgTo7uPt44fkGW0GWLVsqN7VFx0upx30TKaxRc2l2anb5AAph3f/b15+hssJcieHYjczmwRn/1NMUGlmZ4Ffd17KiYvqI9xX2mBzOMPXec++9dD4fwrBGJ3jNM89kNsV9CKSqlZoR6uOvv/4qFzW496U08vrelFonhoFifSL/8s+NMtBTEuNo9HXdKSZEDZUAOpCTT1Pn/ymBHf73A3tcSCOHsUpo5YytBPTsfJqzaCXN+vZ3qX1wWUBbh153rdxeqGDY7MLGF37DGmslb8YdZYe1hhwpGYR7oFFgUYqP2LORC1H8Y73HWk/oXENFS5b8TVv4DQXhjbyNHZYasROPL1AYb/Y8wDo27PYgMG7u/+bQCoVurGwndPIX2Mz1N4fHEKt7SHKAPKrRefKtZ/klbti5Dw1/+jUKjqxM5osfAcZXn59CpRpqDFwO5nw8nV+gKr18CEuv4ayyBFqJ4V6LAbqarTMZJzKl+iHBAHStw9V/8uJTtBtHAd8YM5zapfE+RWQwRYXxMUMrnzAFqAPZVh/GMW8iWKCbfRj3kXxfkGmPACpVKH+PirBefkJ0CLVukkRjbr+SulxUZUmZ9+UXSvZL/+PUE4LECv0bi1O4aCgX08LBC6AXaqVFQXzBbUCHyW3x4r9k5qbwKZJ+7IJ61ocywqU2aUoPsWoAOz7oJLvFzvroQyoyuccKBgHk49k+rdbJoa5EpTaXnMLMiF0AarfvQteMm2yms3/OlqePedF4ukiR1JdVliW//0pTp74h8wrH1V5h1coayFHfGd7sQsBUsf7BjNmJ9wXUC1Dcu9qk9+P/If07U3Qwm3GtqGjmHfLwN25HfFgAXdy6qVwRHNkgfJSEfuFFTjB5M8KzE+ddlfdBfcF9AL81Pd1tQD985Kg0tQiCr0K0KV25h9lmd/EVbLPvx/7osE4IwoLtrddfpQqekbA7mc5b77CuLF1apa5Akg99cqqkrugSg71Rp57U867RDPYqPXXatGk0Y9q7kmRH+QdYVXnyicflYmAy+5RfiGArejluxmBmZh6j40ePSM9CN23JW/2NOLSEFp1hFUpQBPv7eIWgstj5MmGmiImscvqDoNQ629CA1ZTLOlf560AlUx+aEV6ZALtS2iv77Dagr+etaOHXjZQqfa9gaW7Dt8MrzFdXwgB5nM1yA3lKFPTpp5/SNzx17mMPOqgbMCEKgk5+xcOTrYPcdDPUGOjsVzw4kaITKhMQ4CeA/VU+l5rFJs6PP3yfcDAChA00bPC0ZZ8YrCOsEg/igX37Zd8bWLMu4+OB4bw+qMmEF3rYTTfKXdywYYMUd0ZJwiACkENP1yL1CkPrHruu/cOxQQRd3qsnxfF0XF2WFmsNxkYVttSfY0sKTqrDIQr0+ssv8Qn82rSfd0+FrhcYGk5pva8x08mtlY3fhM7ecu1KWvPjPPn2+fPm0XLepT3OIBeSqys7ew27+VZpsa4niUQB5ewtuZP9tsVLAr0Vp3V8inhWs1Dr3NBAZT+htm3l3VLlxpgS6Hp8dItER+HKhRUWfGo11g39dVsRaG/d+o3oPk4SIDYXwMA9e/eYLWjKeWe1oiDbqhVBr1HZB7ab/QT9EdGvhH7ZuHFjmvDkUxTN5kG9wVEWcIYl/tHDh2SJBaAjHMW5QPDlh4uFIPiwK0lYXyDN9SS6W4COTRghadAA+Jj4OsHEdjXb92+++RYL+6vSHosTSGcYpA5Rfhbt21LlJqxl332OT+C3atWasG6wh3hSNvPfh+kNu7znCl2kiPSFMw1qUkp19W/47hagQ1opvfqSWAWwqXNqtcaL17BmioyIohG81a6MLQJzFtwXBOWk76Dy0yUOtawoo1IHx0NREZH02ISJZrFaEM13wKDBdoMc5cA+j218Qdg+P5cIMSoF7WGVU30iDbo8SE+iu0VHVxceFBzi0CBW14BBZWjYKJWmfTCd3n3rTYrnUBePsOvwapYY33zzjdSsE8eOsE5dRlX2AdutPbJ/n3xT7Tq16dabb6bePXvQ23x2E7rlfQ+NZBVJfzdWq4aiQj5+yA50guDo5A06zSpTZi4n7IpQL3rPUm6xbd9+d7WxjuL4IU5wZWafpEb1tY8katXpFqBrFexP15qd15ze59DNUCMwE7Vit1BBuRlHqfjQDpu7icr+HtqxUf7aqk0bCmXrSut2HWjm/z6Vrp8pRYRex4BeWpRPhQr34JQU+Nh4nvYdzqB7X53j+Yps1JDCB10EQbDm8V4HKYAufK7UQlc8YwDdxIkyjuciKLF2XWm3UWzM/PjWFApjnw976ZQi5iAWnRgEAFtZh71liftOs69QoeLQdkxcgqNF2H2/ll+LrYexIAxhr0pPkTqCgXpzyVa9BtA1OBTPG11w9F/B/tugrGOVDkgat9q81ADnPWF2c5GKOMaLO8KA2NOMC1o2oYYcG/7Q8apgS7aeC+e4kh2aN4aSbOtWp36HsADYBQ/0gK43UxpA12I7W2TcNVwVLh7y1mqep6+dlxJFC9+bQOlH2LRqJyUkxFKz2jzrWXHosrMozduECdHWy67lDoECDaBrsZUXn/ASFNS2x2BKacGHAyS12rpuXc7WkZULPqHivMroX4VSEgBELLN0c9WqWu9abHSk7JKKeyo8BCiUXYuTHtSLC+WP/Ys9vXa76zo28ZRb/8qDFvbUYQBdg0sFhUWUw+HkBDW54FJK6tS/0o/D2tTMemqt8lLatnopFW+rPEyRi0O8GnU4egmWrEQ+RHIiu1KdyOHD35R6bmwYgVciz6rgWzB7gCpJLEL1JLrryqOjI+YH9yMsR3ZupURGc0PhtwK/HWsgx43wtQgK5XBqld6RuAQPSWIJ6SrBrz0sompBfFBhU3e1bH94Xu3fglDXSjKA7sQonuYUJUoKClHbkK0UylI9MqlqZziXge6OzbNwjtOo3PL3RpQzK730+k/K/sIZTutQtbVGGRJdxR346GQr1Jaw2EQO4O+Ym2tsYlXGCrhGWPOTtjY4yt/gRqB0rVjFftl6FgZ7y/Sn+3YqYjPCD19tbhSOcsqjncr+GUBXjTbOZB7n1CSCpARVkVVhjG2Cg9WXsKiqk0aIoKX0Dbf5vM4NQZwtozFn0hO0lU9yFfJa4lwgqCUrFInFLtXw2sRiFfq5X+vogRxiDh9v0RFTaAzUFxjGIeWCHNgI4UEJVwC9kLO3lRRWZbNwtg8YwLSmaXJwolN8il6El3a2TH95LvtkjuSaK+iiTpXHIZXt92sdHWckT+VkcfySp+gJjkl4QpXlzFMDdYxjKQqKYTWkliNA5wfDE+vIz2fzVnV2TlV0XWfbDPNkPT5NhGN3IFghVihOdDlbrj889/cSzrZt2hXGoZ7WnAZTSUJtEeEvtPrk06oLFnFvvj6VPvrwA5rJYZSnPDeJ/VEcdJnV6rW1a6x6bOOQaIKCwyvt19YeUf8WHq/yyzhVGZJPfZ+j3xuzI1djPvcKQjAipIDRiwXpaNm+ej9Uki+++EJu3oWXdJJfdnFRrIH01Bbc59NAP82JsTI4k5w48VPKh4NLbR05c3HEoE/v379fLiWSF6O1NGKa2KoGp5MEQfpidnKFsPCsnZQsZXITCy4Ez1cG0FeWj6RcgrI4LAVPS65U7/Zny+GYxelzBCFysDoYFn7bwSl6ED9dEE4bqeN8Kheiwl1X3WDXuK8urQZ8L2Hfc6R8ERSAjQmYYhygitBozmpRdWgZuT3dscbAQhnHFEVGbMTRgT+O1qFipb/694v/pQOZikgEDvTFU7cezSulX1ZUeXkiqbDakoKXG3lKc017GrA6dWSLi/IgC3Rz3AdprmdxQR8MoKtGMp8Xecr4ICF8cCLAwZAdZ4NC+PRPle3dXZs7cCPuylkzRBYIHD5AcB9l6kbRHeQPFXQ08yTdMuEt+nc7pzOvxXmTQiKq9bP1YB7d88wM2rn/sNzGWzkSsFr1gGkW52yFAxdehgsuuMDsPvGS41mtk1yiAt+az1Sgq46v8KeQfZphrnIyylh8aktK3155nC6bDwm4iyJ5h/TRR8fQ2LFjpCIRQRexFS9XnKnEdUTvuuWWWyT9Fi/uzvQjdNXIFySvxPhY7ehh7mqjtXLgEZmTa26FGsBpIftyXHklQUpjEYoIwCCEN0TCMUQNVhKAjnutgRz3G0BXcA169EmW6EJKhEVGU3AsM9YJN9sohb+4yLpmNkJOfsEaZQjHpZnGsWLEWmLSpEkcK/1bOTATioY//ahRo6QowohRI/oEoDnifutkM+16DKoKNn+mcoxINSHe4pccOUFYW+pzQCxl0FHcjz6JfqnVHnV5huqi4kg2h3sTqksonykNi+YNIwd1dBQZobClI1muO9wARFMh1cc+Nl5uOYIwzZpteQoIPvVvcMYMBJOqx0DxJYKZdBQfW0RQVrg2KNVFtPN7jp6LaLuC7uaowOqoB0KaQze3pp+jDEOiq0YfYc+ElAhmy0lQqH5kW2vACVO4AUAqnWH/mVrBjpw81S8dunrfK66g7t27SwE6Qe+/N426de3CGfAukh+E3oozqsjuhqjGW7dtp0ze9RX906/Bc78AkAA59G3kWxKRDJTuDIePHpdysYp2IsrwA3ygXElQL4Vvuj3REAygK7iHrHAnGejCLhvKC9FQKaSEg96HPKVGxFf5u6CKnFO5lMjREdxF0VExNIzjhyNEGxalhzk73vOcMgeJgZM5OKeSAASErtMLX+euNrlSjliIwhR71x23yccY0XbkZVKDGWOElwMmST2TorI9huqi4Aamzz0c7FJIihCW6CHBbD1xEOdaAw6VqBbHG3QXBXBZfTmdzFDW14X9ednSv2nO7NkWwTrdVaenywHIEXJb2M0BYORlUkckwzjh5cbLAd1cba3RaqcBdCXQEWObP4IC2JEqgCWGw8TT89nwWAqPqdq0yWQf9wAnNp706mZhRlG8WL7v/gcIkaxAsBghq9uiRYv0HvPZ61BToJdDZxe7vVhj3HnnnRYbRCKmC9QgrU0mrU4aQFdwRdp5VWTmQOaJIMUOpxYDNa9xnMRaoZEcbq7K6zHLdDJI834nL2Lqbt6qlRTEVBCSoz3E0YDFwW4ni/b6Y2vXc0LdMWPk5G7Y2R3PuWKR30gpsTHbQqILu7k90hydMYCuGNICPt9ZWKBIrYjoT6YIUA6NPEtbzAZhsVUhKfaZMls4VI4dN5efqaCeHLn4zTffkm3JyA+EnEaLFUkM7CiqWm6BJId1pWf3blJeIxDUEUQZvpaTIyitKViAYvMILzjUGlsmRWWHDKAruIEFjtiFQ7bnoKg4OstH45whDFBEdNWRuoyMDGeKsesZRC2+gkPpKf3VYYeGhEQWancc/LCrIQ7eBBUE9n8kdxMUyiAfwRno1HmZAG6MDcAOkKsXp7aqNoBu4hCmwFL2cxEnzXEYOaFeqi3+6f5eiyV6RFylSy1uQlIqTxLar7YlI4vbBJ7+Z86caWGn9mRb7CkbIEe7YEYUkhz6NnZzlQm5RFlQWfAByBEBWd1XW3UaQFdwCAm2REY9CagxVUC1xUj175U6ZNURPBzPUy501fd76jt2TyEdh3Py3Sw+wOALBN8c7NpiRxcObyAAdxhbkBBlWCyuRVuh3ogFKNQVW9v9Wn00gK7gSglPjfiAJMmhOHWvxTyr13iKDWSriKDy8jOy5LL6nJt+RGZmkcQLZrtFP/9EAwf0l9wBqsOHHaoH2oEkYtjEmss5WUUIC3hjjh07lt7nRMfiYIlgA0AuZlkA3BmQoywnbGduGgmfK+Ys5XMMlkKWNiDo6CERlum77W229Dxn1hAES0EBR4GNUZgc7S3Lmfse5tydOWzSfI2TgO1PT5cWcHD+GjZsmKQeXMux4WG+Ey6/ztRh7zPQrddx6p8vv5xH33z9lTxr4nmAHgtP6OVqAsjxUqLtkPhQWezZHFKXg+8G0E1cQfY87IqKwKI4uhauMA9qMc/WtUDWOaF3YsAA9Ny8fGrAGz1IL+NpQlTqa1hdqV+/AdumP5Sy2YGQZwrmSHg99ujRQwJ8165dnZaU1voBFQV+OEiEi79K5zbwpUfPXvTYY4/RZZdapqgRIFcuPp0FOdpoAN00UgjxVswLJJngouvMZpEogD0ewxLrUXhkDOXnnpSsBYWFbLqUHMQ8D3Q0A+uMizijWxv24e711Xya/NxkftkqTXg4mZTOkh5x4OHfPnHiRCnVIbLkuUrwVfnrj9/ok08+kcCNxabs+mwqHFmtYQKFvVwNYKGuQJJjrYMTRY4uPtV9MIBu4kg5O0rlnaparNXiwxMh4dEWA6RmoO53WEEiYimIPSCJgY7ByzpRGU5O9xk3/1D5OgVw5roIuu3ue6gbO4E9ywvAf/hQtRSGg9uEv/ggCweOs8FRrC8Dvt0FHSm1QX0K4wMk0IsBRnzEBg1mKIBXZDvBRhVygGKmWMJ+5GqTJp5FBLO+ffvQZF5wpmokWgawYVkRtnKAG2ZEV0EOthpAN4GLM1SaLRZDccDZxXOWSJ0eElZ5drQS6FUZK9yMaZvFlXHygUaNm9KMT2ZJ2afnzJpFWzkT8z62yqBtIHhZ/sxAxQcObnX5kEN9dgbDYQdI/QheNIaYZjmoJXmcmODQoUOUwSCHU5keNW/enDpeeBHdeuutnPa8s2bKSOGNCKAD8FBtcNjCHSBHuwygm0YHGsUpXowKimX9vAIOXYrzo3oDqXc9iE1hQaGVJkZIwDzlrqveQx68Lq0NAgKpc5du1IGBt2P7dlq/do10kgeSWEk4vHyEj7Lh4wwBpL169ZJmCDhltW5zPkVHRWoWBekP86FQbzCDuLLw1KrEALqJKxIQeaEmqHYap3eR9GnnKTQylkJZfQFBUu3bu88ncjvBnz2YfePbte9Arc9vSzfcdLOU/3TT+nX0x59/0U+LFlokw7KHCwkJCRKwoetjgZvE7sKw6ug5XgHYADhmFKGPA+AAur0+LPa0C/cYQDdxCkDEsTNB0XFV2/f2MtPsPiykIEBZBQBhIAt4qkeUgbBQB4KWOlW5fQ9JZjtYl1iHb9IkjdKanUfXM+hPc2SxrOwc2r51C6smByWPwr2m2IeNGzbiTNftJTCm8KmltGbNqHadutSGgwpB77Znax71AuTK87nu1Me1em8A3cSV4qISOcU7LoVFs+chD4grFMihMnAcD9IJg3uWvRoreObwVYKkx6cW+/cAvHU5IVgoq15rOK6KAPqVgwfRlClTLFxn7emTWMBCqIh1ARap2O2EquNJMoBu4m5pcaFZjvmoZPdkfYOrr3S4+mxlxgaEpEa2BhffIU9iQi4bOj0OY7v2upNkgcEHUhwfoaaI7Xx3LTitMcUAuok72MxRpg6RAou6sBBFsWc5VAZMjJBa5SzN81l1KSwqpIREhKxzFT7WhrX6fwOYAW5IbwFu0Sqhh6vt555stVeBfoRNUL///ivt5ghTZSaTlrXOYarbtKkqmlM6m8KOshNQ06Zp1h5z6rfcnKpULgHQWzkUnctKBpcTn9KIAlmfLee8SFh46WVTc6rRXnqozOT/o1edsJZAHcFHbUOH6gZQQ6+HFPcmwEWbvebUBZC/P+0d2sbhf+0BuRZTsas3/YP3CWW5kxDPJZO3/wVFJblHbUF5YXzAWiTqKigolKR6TSM4Z6Ff8EsRIAeYhS0cO5uww7vbZOgIH70GdEhyZwGu7BAkBspyJyEuIjY+BMXwtjTiJ7qDgsM5/JvJ8pLPJ5jyWUWqaQQ1BQSJDauL+ADgALeeedGbfPCa6gJ1xV3kzrJEm+DpJygqoQ6fLOKNHjvUK1t9ioxJkKdq6KvFnBhXAMPWs/7yu+gPFpWOHG/zZv+8JtHdIc0FY9xZligTmegExSS5Kf4KL2aDJIlema0Dzk1ZGccY6O5K1+tNqPh3XV6T6HpsumbIEL2fKJNjoRw8kE4H2MvOkwTbMfw+BIUpznq6Wi+cw5Q7rIWmIKaBLsZLd7Vd59rz1Qr0bt268klvfaBjMEoYGCs4dLAnCXERTymOmUlxE100LYr2IlxGSBRvPp2sdOjC7ijs024M8eJJ1tSYsr2mumhxLCnRPHSa1j3euJbL7rmZirgrUtxENwEd7Y/mjM+CENvRieC83mBDja6jWoHuK5zN44RasNkLUsdNdKWdFWHRFBtf9UJjLaCsy5WyjWft54ABdOZVUXFVvk4p4q2LXotq9kcmVYVsxlE9A+hqDnn+u88BHVP7RzNmeL7nphqwWXQiM1OuLyYhiQIiXPRcVLU+mpNsCcIBBZgZDfIuB3wC6Ns50M6jY8dJPf/o4xm0bNlyWvDtd17hBDZz9nIEXUGIFEXBVRnlXG4Eq0TxyVXnMHHkrOgcyfjsMu/cWEC1Wl3QD0jwF196WerSrbffIXdtGVtaWqoSp7qx32ZFoQ2CQjleIg4Vu5MCFQl5obaUsaek35A/uFnawUz3jqgdFapvwSmUT+fMVl+Wv+MkuadpF+eyFBTDnoWu5gRVtzc4oUp1gT8IUn6nut8vTV2tW77D9BpQA8xEHgN6YLB50Qhcr6blK1fwoGdTkintt/p32Ju//vprs8vwhENZ6vLVz9r7PYjLQo4hQdGc5Eryj1YbumGVMfmsSItVfFfeg++4Lu5BgTBR4mABRxNQUhGf4HFX+631M4R9eFxdDQQzf4JD2GXZz8kjQP978Z+0Z+9uM9bsMx3FUl7EtdUc2EaPEFRIhC3DPdhs2bd3jwTEr778XO8xh64jU3SGYjF6nHdiI5cu4FM2qsGVpnDTyyqFZsE5OcXLK6Z49TW8mOyLjrOTIh8ocoMi1UsZh6lzF6Fs8EfQX7//RgWciLZMYTZ1pq5g5nX6TvOxVJcDT0Xhqqv+zVe+B7BDjksnAOBjjbggvpb1zFcYXNPagfgv6qN0cNEF0OGp6OkjcfbwE+1Qk8tWl8qoscFS8BuDaj4H7M0ZVF2c0Ise4LLqgoIxLT/51NMc32+R7gka2I5hWnNxApEOGiMnvK+6g1bXAHuj3uTkZCmUhVJqK8+A6oHMG20Tdei1wWXVRRyfOs1Aho5oDciIhY2wwYjHJ06B28sEOO8j4lPv3r3dEh/Q3nqN+6o4gDFQx2kRIekw7vjNGwedrY0J2qh10MNloKOD/ngO0hqzjN/s4wDGXhyfw4IUx+WqmzDbaEl1t+jo1f0WVzdzz8X6AXJlfBatBaC3+QIcaoEc7XBZR5cK4enCcFTy9rBWX30Ya8ziIpScK5ko3NkLLZVFlO8WoOMtwkdp83ZnB4yyfIMDkOJi8SnWYuJAdHW30Fa8RrcAHZ2EboQ3XGyKVHfHjfo9xwEINejkIhCR52qyr2RIclvqs8uLUXVTMKUpI16pfze++zcHBMh9xbwLSW4L5OC424GOQjGtQbobert/g9qXWw9wQ5LrLT7VbfcI0EUlADzArtbr1I0wvhscsMUBsQ6EymTNuqJXjkeBrlepcd3ggLc54LId3dsNNuozOOAMB/4PuhbLcqX2BgIAAAAASUVORK5CYII=;" vertex="1" parent="1">
          <mxGeometry x="855.59" y="282" width="50.82" height="50" as="geometry" />
        </mxCell>
        <mxCell id="FRUZjQZHrvY_33S5YqQ4-60" value="" style="shape=image;verticalLabelPosition=bottom;labelBackgroundColor=default;verticalAlign=top;aspect=fixed;imageAspect=0;image=data:image/png,iVBORw0KGgoAAAANSUhEUgAAALUAAACxCAYAAACCwvy/AAAABHNCSVQICAgIfAhkiAAAIABJREFUeF7tnQmcHFd95/9Vfc2MRvd9WbdlSZYtW/IhfN+AbbANARISEhMIJCRkQyAbcmyyu9ndkA0E8gkEbAiYwzFgMLbXNtj4lC1fsi3Jtm7Juu9bmqOvqv3+X1V19/R093TPdM+Mpvt9aKyp49Wr93713v/9j9/fcinSKI0eGEI9EK7kXRT/6XRaHMcR/Xfje6ik9xrXltMDlmWJ/mzbllAoZP5dabHKmakVvKlUygC6URo90J89oMAOh8MVgbtHUCuQk8lkf75H41mNHujWA5FIxMzc5ZSSoNbZWX+N0uiBwdADOmPrr6diF7tAZ+gGoIv1TuP4QPRAuSJwQVCrDN0QOQZi2BrP7KkHFJc9KSgKzuWNGbqnri1x3kmL6/h7kHSe6BbyutuyIyJ2efJhiSfV7SnFp8rYxUo3UAdqu2I3NI7n9UAqIW77UXFOnxCXWSR9cLs4x7eL23GSv9vFSsTNDW40JlakVewR48UePVnsMTPEAuT2iNFitYwB5N2GotHVRXpAReNSGpFuPdlQ2xXpyeCwzsTJuLinD0lqzxZJ794g6X3rJX1ogzjH9ne52W4elv1bJ+ZUW9fKh02W8NSFEpoyX+zx50h4yiyxhk0E/NEGyHsYhgDYhS7rpv1IJBLGuNIoeT3goKc/tEvSe9dJ6p01ktzztsjxveK0HTUXWqEmEYBrFdql6LFiNgRX+zoh0jRawhNniT32bAlNP0/C0xYxo09rgLsIENU4E43y8Rco3UAdjzMLNSznXboqfXCnJNY+IclNz4t7dKe4iQ5mXcSKPJHB6rbu+dUEgC4EeMW7zuLmHAC3EVNiwwygw3PeJZGFN/Lv6QWGrr4PqaUxFosV7IRuoO7s7Cx4YV0eBLidL/1c4it+Is6JfaDP9WbiIrNuLqitkZPFah4tEvU3NAl27Z3HxW07BHa7G7PMvfn1hl1k7skSvfDDEl3yAZFw4UGsy7HhpZuaWB0LlAao8ztFfVrY/CW3b5TOJ74m6e2vArZmfh7iLIBmipml0xIaNx3gTRF70gKJzD1XQpPOLr3xQ4xxTiK2HNohqR1rJL3/HT4YNpYndgFaPgDOdy0qniQlNO1Sabr20xKasIDrdNnN/wLybquDPxugLmeQkW/Th/ZIYvWjEn/5QXFPMasGqjfFkMNM3RxBHJjC5u58Cc24QCLT5gK0swBa4Vmjx8emOiV9YDO/LeLsf1tSu98E9KwKKUQcTybx/uOm+FiGS3TpxxBJbhKblaCwAN/jE4fMBQ1QlzGU6T0bpeOZ70pqI7Iz4kJmNtSNs51gtjxfIvMv43ep2KOmMkOPLaPW8i9x246Ic3SPpLa/zGb0RTalqz1g64flT8xWJCahWVdJbOlv0J7zyq98CF7ZAHUPg5rcslbaH/pncQ5u9K/0UcQMaTc3S/TKT0ns/CvEGjFJLF3+e+ES2UMTvNO6SU+jgTp5QFJbnkOe/6a3Mc3zeQhNnCtN1/1XCU2tX2A3QF0MUVj9EutXSsfD/8IsiVzrW/0wlzA5slGbsUhabvozCc88l9m6iPqiWN19Pe7if7NrtcSf/Tqy91pqy9ENOqwcY+dI7BraNusSX8bv6wPPrPsboC40Xgrot5+Vjl9+XZzDADrHdG0PGyXRZTdL9JIPSWjMxEJ399sx58QBSbz2Q0muewJL5bHMc1UnrmJQ7Mo/Rv13Zd0BuwHqAhBMbFwlHQ/8L0kf2c2eS+VWln42g/bkudJ87cckuuhaX9NQ4OZ+PuQm2iS1+QWJv/gdY4ZnEfELGpixUxFF/paN67J+btXAPq4B6rz+T+/fKqe+8Ulx2tV0TQiRGkBU3Bg/Q1pu+6JEZiOrDjanI0z0qV1rUDX+H0zyO0y7zQaSX6ilRZo/dDcWybkDi7R+fHoxUPezkNiPb1z0US564SPS9sCX2Yyd9BChcE4D6JETpPnWL6BvvmDwAVrfh48sPONCZuW/FHvYeG21eUsVQ9z4Cen89T/jk3Iwc9ycrMNSd6B2209Jx7P3SmrbGkSLwK7tSmj8dGm+/a8kOnfJoIdBeNZSabrpr9GXox9X3xGw7boRNDdrJPH6fcZDsJ5LfYGajWFy06uSXP0kKAgsdwB69Hhpfs9nJDr/Itbx4n66gwko4VkXS9OVf8KMPckDNo1zU46kNj0h6Z2vFLBMDqbW17YtdQVq5/Rh6Vz5oOfHoYIoOmEr2iKR5R+RyDnLzyztAWb60KyLJHLB+1lxMOP7TmjOqd04X/0C/+4jtUXOIK69fkCNVTC++jlJv/Ny1nACMMJnXyJNS64D3L00c1cyuPh1qF9Jd/+OSirJXmtF+CAX3oKcrR+k2elSouLsXYXh5pnMDN672s/cu+oG1Man4+X72RBmB8seMU5il95GFAp+FDUuqpJLvPmYxJ++SxJvPMxqcaAqT7RHTpLI+R8Qq4noGb+4fMDJNfej+ttdlWecaZXUB6jTSelc9St8KbYxo/nm77QjkfOu67eNYXLdc8brL77yu2gpvirxVx9m1vZCvfoKmjBBBZFF76G+YJ9g4/W3VZLrn8Dk3t3Nta/PG+z31wWonROHJLnqITaB/hKNtsAeNgLz9+/33ruugpFV8KY2voDXH+FeiDxux3EsmOvwKK2S7zoegtFLPy52NBBBVMQOS2rdD5Ct8TSss1IHoHal89VfiaNupK43S6so0HTjH7Bk58QQ1nDgnaP7jA+1hP3nKVfciJme/3SVnqvydeyKP6a2036NeK4Q8JHe8RR/1xcH6JAHtUZ5Jze/iH+yL0xjBg9NmkMkybV9gpPbdoLI8W3IxofZ+JXmGHQO78BZamvmeVbTSAlNnkmAbYt3DFWjBvP2dQMZnn8zfipqUfTa41Jvattzdae3LhZV16cBH0w3qzncJWA211U0gk+H1TS8183UmMX4C/cQTf42Vshp0nzVxwiWXdzlGZnKNQjg2K6svIuxxBo2AWPPbKOGc07sleTahwgS2CbhufhqL0QTE+td26xYq4TmXC3poz/g8YgijsXHtNN8UKGpF/b6fc+0G4c2qNECpPczS54+7gMOU/jw0ZjBFzNL9s7IoqJE51PfltSGp5hd8Xs+sF06CZRtmTCnoDjjdpyiDeszemS1aSsNgj1qGkDvxPvufkm8+lNTlwYGOCePSmwZ2oxhIyvHEoYje8L5Yrc8hk8L74yrqtt+TJwjW0ykju/gUnm9Z9gdQ1r80Kjv1I43s4BCtLTw7whPmuc5TFQ4WOoz0vHruwH0MwASrYIGCmhMYztm6SIiiDpMuYe3Z0UL2JnCU+YIodCIRAkAv4U6knxk1EVAbnL1vZJY9yiBAe0Vto7L+WBCE88Ra9QE/vDlaP2wd7/hBRpUXuMZecfQBjWzX3rP5iyo0X6EphG42gvRQ2fo9kf+BVHhcQCSVcVZENZEMK8XNN4AdOcIgbVtwUoB7qLQH0wGeBo9wy/EDC8uw+BjUP02EivvluQb9wH6yrUjpv7hM5iks0OrIkg9qfaGNKjTRw+i9fDIZnTKsfAvDU2eD7AqoxpQGbrtgS+hIkPvS2R3EA+rlvbohXdI9PxbCvtdIz87R3awUTuRmfEsgg9CY3BEoi2WquKW3YGDP37QhHB5Ba1Fx2n02d+RTkK5vADcCiZMYhjtSedSfY56j9hHt606xp4KWjJglw5tUO/fjkumLyZoFzMzhgkAqATU3gz9r5jXX8Ia6Rtu/OGKXfkJ3EB/nyjvEQUHUE3i6YObAKxGhmtBlad8IMP9gF1V7UFU0/Te/+aFZClTk3+dGycq57X/lPjz32JlyKMr868q9B8LbpDQuHN4lG90QSRRUSl98J1Clw/JY0Ma1K5SDaRP+QOH81JTi/kpuMopKkO3/+ouz3CSUv9O7y4r2iyxqz4hzTd8kg8EZ6IixYUAJ82Hxdfk38iTx8ATMnxczh0Aezhegh/4koRmXscqkLOBxUCYWP1z5Oyf83GWC2wCHppbeU9C0DSSR4tzGsMPGqA6KUMa1KmDexhQf2BhyrTGTmGwy3NcMjP0o/9mZGjjs+x/CFbraIle9tvSdNmHeoSIc2IP4gemeb9YFmydRIHn05XpadVdN9/0WRysru1ilFEDSvzlH0n8FfxW0I2XVXDOsobxruKbzY3qULUh9VGGNKjdONY1A0ivWC0jy1LlqQzd/sjXcQr6pae1CNiZ+CCiS2+X2MW3FxU5cmGT2g5vR0b04Ay9HZ5OVHqRomq+pst+1w+izbQaGfuIJF//AcD+ITN2sPIUqYTDyn9tKM+CgheX2xlYGovfN1TODGlQ5w+SkWeN+FG8uPghd/z63yX5lm4K+SACfg+nTWKX/440YWixh6tHXGkRRrmpkxuxZFrZlcEaPknscTOLPxz51x43Czn9T6H4JaQsI2MjFydOIob8SBKrfmRUgSWLikTqY51bQqWtniXrO8NODllQ6+bKPZXnBWd8jkuDMUmYV/Kt5/1h9K91O+Gx+0Npvp5NoZGhS9ehN6vu2tmzMgsHuKkj59zIrVmtREGsKLBHTCSI9ivQ+SpRTeBlh1YEL7zEGz8j+Pb1grdmD9I+uyuo3bb2ijacPTxgUJ8esqAuJLeWMxJqabQCptLMDQDRZgkvV6blvsTqR/Cfyvo4a1WRxYC6zGKF0NSc+z7v+8l8Q/wjhVEm2ZMIwmYxx2Mv88g6yVYwZEGtqi2rqasXgOp/e3JYUx+OyAW3AuKcGdWKSOeT35f2J76L3jtLJlMKn6lNT2ZVh+xV7VEQqo+aUuqW7DlcVRNrH0Gdh54aF9Jsmx0Jn3WR2BMxIJUsWDnzZGiriY+1TqiAhyyozZhHui71brxDnM7Sjvl2K1qIq2EWPR9g5yYiQixIvnq/dD53b48ztrKWOoc3ZmHnxCU8/xpA3loSiuYkVsTkuifh0LsLuoMshYMozdjE8yR68Z2GOrhkURN+/teboVMreeeQODmkQW23qpEjK/+6bcyyhiK3VFEDyVhpueUzElkK0bmSapiCTKvR6K8/QPDuT9BIFBcB0nvWo6XISd1AHeGZS6miB1lcebHJVhB//jt8OLi0ZoqDJVT5Pv7UMK/2ROHrJtlPGP6PoCCONJXxQeXccSb/c2iDehgunIEPhIKznQjr3Nm3xMjZrUTGvOeTqPBuZdnGIOIbMlSllnjlx9L57PcLb7zw90jvIqol43uB0Qexwx4ztcTTOEVQbnK9ztB346m3O3ut7ZoNY9M1f1w2w6mb6OSjUFD7w4soZUV74fVXusWD9uyQBrU1Am81TTCkBZClIYF0TpRpwNBb4J9uvv5OZOybTMJ3K+QZcnSWTrz0Y2l/GPqvPBlbXT3ThwkIyGQEgOtuwtlit3bdNHZBBHGE8ddYAZ6EefXY9uwpNdZMW0xEy2fKBrS5GfHDje/HgRDxS6kT2BOEMDzVSxnSoI5M952XfE4MYInFmLCqbikoigy3+maMmiQtN0OXe+51qNSy7qAad5hc/WvpfPxrXWRs5ZV2jmGeDwqJiRTUggN/wUJb4q//QuJPfdXELmYLMvS42RK77s8ROWCNKpfXDxHGOYw7a2BJRba2Qs3ov7Fk1kkZ0qBW6gPPUOKNpsuMmNr+ljgdPcnVXUdfYxmH/cZfE31+Myd8s7tewseSfPMpdMcPeq6dxhxNNgB1NfWLxQxtT5wBsAp0NaJKEt/sxAt3A8IcxyvLQVxB5Hj337A5XNijDJ3bWjcdx3mJTSpuAZnSOgEnKtLX1Ukp0NND580tuPKssTmDCeg0bKpXfsrEE7bc+nlEkTu6UJMpiJLb1honfOOVxyYxt379IOxRnqtpfs9qIEDyzV95rqnBJpJvJjxtGTRof1aZyOFX7nZiZDm+xRBeesXyXF3PEDq1/D7qzd9DG9SxZih5c2IHGWfnkHrO7fRkzQp7zMZlVHmrI+fhP60ztuIG3xJ7NB5xChpAndrH0h/3xRQjvpyFbI5s35PmQ6tCFg5NWYI5/hMAmnZXWjQKhyxfzikVf3xQaxs0GiZSniNXpY8cjNcPaVBrqovQBJZ+wG0GmQF2Tu6X5M63wWIvfCEMSCfjcvoJMgx8RKxWol4WXyNNy3/DgEZzJKaP7WaW9OvGKmhP1BR0hakYNAlo5IL3GfcQFw48a9RstBx/SBBvBTJ0LqpwXEofWsc7BpoP5GmeobJ5by2sgxG0PbVpaAfe8vbhqWgeJkyHCRQ5U9XEbKBSG1eILMe4ghtpxUWBDV1Zy62fE9FfTkntJrXz6f3Iz163WmG0F1MWZKkQ8h+GmjFy9hWIGwTKooLTWT1Dm5B/bRl/ayiYWjLJw83VOl+pOnGaWKOJyayjMrRnah1aNouR+cuz7EzQjqXeWQ0XyEvVHWa0GOl9OOKredq3sVjDCQgYlRsQUPiRVssYKBNURCjtQVj47uzR9M6XacNb+tbeQdVxn7UcYxJ0v3VUhjyodSyjiy7HaS2XS8OWjif+o3cR20XAoV6BaYJsDaupX6wx+Hv0U15xN3GKYIK7mJyzQ2ojdoXnXFukxUP3cF2AOjR5toQXM7iBflpl60PvmKy21SpKQKMbQuNZ6u/RIrOWIC8Xlqer9dygntS6R7w4RN+SaRGjGJp3C+LH9Go/atDXVxegVtqA5iuU7lYNIB7ilEAx/uIDMKFuzqKwL8OFfNx05W9JeMkdGDqmSvSijxoTe+0Lasq9bxIVcx/iSxAlj0yN81T0/Dv6LNLUvv3Vf8KQ3ygGXWaT0yV62QdJtEnkiIZ46Wx9eKd0PP8zaXnvpzFjj+pz79ojp0jL+77gbdTU3yJSPCi3zw/zK3Db4Qp8+1Fk+cCKqRZEF7Xjh5il0Y/XYamLmVrHVX2Jmy65FXUZFjpfPFBsp9atwHf5WY9xqa8A4EPRzZ5y2vUHoJWgJrnpafIrPp1DJq9p8y6Ar1odsSrjN+nr6w+W++sG1Nrh9pgpsJ3eTFAqs7LvD+Lg4hl/4UewgxIke4aV9KENxCzi301grlcAdMtoCS96b88+12fYu1bS3LoCtbqQxpZcBbMoKr4gtAnOageil46n78VwAaWCD/ZKOrHfr1UfE7z5On9N+uljmP0DN1dEntA0mFNnX3nGZBmrRd/VFai1AzUAoOnKj2BpRN70PdnURTO95Xlp+8WXMaHjNjqYCzKTsj51/PL/opN+VeUqr7VYSEPkVYxciHXTBEfUb6k7UOtQh6fOk5b3f9aLIQxcNNHFpSFnb//ltwA2s99gnLHVIevgZok/83WYTFdlAa1EPagOo1fhpjpxfv2i2X/zugS1+iZH5l0C1ddfExnlx/OpFZDoltTG5+X0/f/ocUoPMnikD65nhv4nSWE5NEU3vOrDwig23fBXJii3bL/rQfZu1WyO5VJyK+yE5qpuCl5xnS/+nKxZd0FSfpqV3LdvAxR7xGhpuf3zEp53BZoMPI7K8LKrSb+p5x3BuKktK4iM+SecpoizzFAdKD9gKwQ7n5XIuXgO1gkFQtDPTUUo5Oob1PSO29kmnS88ACf0vV6W2AC8ANtqbsGIcptELyCXinr7ZYwbNYFvt0o1usaBsD359mP8IInsgCQys8Hlw2sdR1au3wXQePphYKq30gB1iRF32qD0IoKl8+kfok3YmdUmqJcbgQb2pLkeD/WCi/HlmFyipuqd0pCw9K5Vknj9J/iUaMxjjqssLqb2mJlw+n1UwrA+1SOgtacboO4Jb4giyR3rpf0X/yCO5mgJdZ35rAhZvWZdLtHFV0t04ZW9y8nSUxs4rwTtyc0vk4LjcaJo4MRWfm3d+QTsCqlT+GgvhiH1i2QZW1TXqrsGqMsAlGo80od2QOH7FUlveNk3POZwdUCvYLW04p89h43mcoktvQFwj2amxGW0t/Ks5isnrMtpO8om9RkshCu9wFm49zLFgFqDHDTU62KJXfNZxCF8pAdKzi+nL/vhmgaoK+hkpT1IvHivxN8iA9eRAyZzVmDgsMLZfbVJdTHtbLQOZMRSMnUiz+0Rk8zmzQBdvQKVb0QjwfXfuumjLpMx6/RhCGc08nwX2ow1OCURxJAsQN+gYCZo18bbLrLgeuPToRnGGqUhflSOAUCY2r2BDRrR4mtXmHyE6ghlRfO0oL47qxUDxBDgKFeI3QyP3zAMIBa+F1Dqaq4Zw+ZPNgAVL3RzqnQIyh+igbIqXliRAr5lGlVOnkbVwEQW3Ii4cU7vV4TKe2DQ39GYqXs1RDqzQjmwdws0CGggNr1EZoCNeMEB1gLihkd2ozO5igq+IBzQltl4TxntKf81AjI/X3wwPtiZb0XPJ9mQzmUVWMoG9WZcWYlzNJqXHFGoV+8ztG5qgLoK45navlYSG18xOmPn0GbEXMjQ8ZTzWJDw0Csw2ZrH5m708tuhQFfvvhg382977Cwy315tEhuFZyg/daMU64EGqIv1TKXHMYQ4p4+RwnmzOLvXShJZ2IgmiBSShKU0DY+dC10CJQPy/AmWZKBCujmrZZTYRHtbqAl14xc+aymz8gxEGCgXON8opXugAerS/VP5WdVaoA1x29FcoNt2T5Gz8eRhODf2Ghoy5+QhJBAVJbLFIk5SN5DWyHEYTgj9ah3Ppo//IjebzGEahV5ArKm8cfVxRwPUtRxnIyvzU+2GbhyV90NpxLKKEu/p6iJqkoIqeFWQ7ipb17KJQ7HuYqAuJgUOxT6o3TuZDZ9u/PifgrXRq7Xr6zJqztNPlXFH45JGDwzyHmiAepAPUKN5lfdAY6GsvM+K34FMrRtE5/A7OPPvRkuCgYU0cW4CvbMaZAy33xT0z/ONhdAjCSleXeNM73qgAere9Vv2Lnjr3M5TktrxFpbHx8U5sAE/DvK1wNhkqBjcLFG7hOEdiaDCw4yulsLo+dfBoHQpmpDxde2Y1NchyL+/7v2p8zukkr8VzMmNz0Ik8xBuom9hQ8lxD83VTRczvrDBDI2dSiawW6A0eE/dcd5V0teFri2m/WiAulBvlXHMgTev85l7SA/3a2ZmjZpR8YIb8w0tWpeCWtV7hXYwqg4Mk71rxlKy6pLbRb3v6oggvYyuLnpJA9RFu6bCE+rotGMdIWBfhz0V5lRbQ738Osx/cU91ydWIt549Yjrmb3irNcFnXB2akLFPw6SUhBk1rAyn/o18DMaZDzm76XpCyGYvaxhhyhiWYqBuyNRldF7mEmbV1N6txAreRX7wtcyovilbZ+Gw0oyRenneZSYANjRlLn+TZXZYlp7XOYVX3mmI2Xe+if/Ik0S0YF5HqR18E86J3Ygy3xML/uvQ+DkgvdC0X0mD6/PahvhRwbi7p45K20PwbSBHZzIRAHSriTQci6+D/el2KAogTtdMXKWyaWns4fE9kljzqOHBc9tgWMrM9iETotV8w5/hG1I/uQ8rGIbMpcVm6gaoK+jNzie+IZ0r7sEM7nnWGQ/TYSOI5v44wbnvBoSVOe+rf3Vq6wqJPw3Tkqa0CICNOb3phi9QJ0mTGqVoDxQDdaGtS9FK6vmEMjd1PP5lAE0vBGIBvdd0zackdgk0wRUCWvvS5Hw553qSf366q6iRdiT+zJfx5c5RB9Zz51f47g1Ql9NhRG/rLA03bnY2JdVc7PLfkdjyDyIW5+QhL6e+3GvwytP8jOHFd7CRDLJ64Q918qQkXv5epbU1rqcHGqAuAwbp/ZvRdKzKhlxhVAnPfpc0XfFbZdxd3iWxS3+TzSHqPJOESGfxFqMu1PCvRqmsBxqg7qm/NCvtxlcBFwGzaU/otZpbJXKRihwl8o33VG/e+RCBApELmPVRCQbFbUdTsuvNCmtqXN4AdQ8YcDtOewk/1bCiBT21PX4uarsqEzEihoTVJ2TE1EyLTHzkoU09tLBxOr8HGqDO75G8vzXPuHNkD45Jvsc/VhJ78gLPX6OHeys9bbVOREeNoxMRNaY4EZPrvLFhrKwnG6Duob8MjQE8HV4kOLKuMvVPxFIIF0e1i9Iq2KPJpR5EoKNqcTv28XxiHxul7B6o/siU/egz4EJ1JYUN1Y1j9jaF2dpWKyFedRngVfE9NKq8lXyPZDwInqcflSTriIm2Ct05sGZyjekjQ6zTBrkLXHYKlNBIaLwIQh0cBRCrrjiXnBHSGQ2grYkJm/e3IrA74XdtLJYq8RC97mq84yAqysYqScZM3WspFu4CHnnP4Jgj+xfUCmLoaNMHtkti/WuSPHBI3GMHkCE7vEFkprKbR8JVN5Uk8RMlugAfijFEW+MUVJOZsRygOFCO6S8oOpvW0ifDjYJlnamD1aGcRtbyGr4sQOwmO8SBsDJ9YAsR84do3kEMoKgfFcch9PQxIuNJzxGaSC72kXM8Y9QARcb3G6idU9DlbnpdOl/FkeedDZI+jreafvEFioUrphWNSedTqLkWLpXYhddL9GyIXfxE9gVuqdEhFTfoIrsPxpVKW2YlAAvqw0rvq8X1GJ00UVJ6yxM4YT3PpnUPHojM0MFGNueZVpgIn93D8IsZx2YXqrS5N4k99V2IU/2fF71fQJ18Z6O0P/FDOKChpoUnw+hi8W+wosUfr+KIc2i7OC/uwwixSpouu1War9Wstf0pmqheOq+N0B8YUakmRWnO2j3Wp6D+EN5//Pq7qIiR2vCYpDf9WNzjO1hN455riiY9LWhBZYVRDVFKZ/FDkjy+WezdK7CU3glBD5TDpRy8qvxyxVFVjQdhHUtsfktO/+grMHuib1WHeLpGSRaVvcjBoJFfLOPC6Q2i0TBA6+Xgotnx6JcldfywDL/jU/0HbJVxYVFSHjszc+r/sWlUo4iXNbfKMqRaE+NYEI0MT90q6pDz3Czv/VjcBBE9b/xUEq/+K1Jf1IxV7odlqNZy9hmWBjXkgzbFXmnPC5I8tVPCyz4voakXayX98hY1BXXqwA5p+9k3Sby5zhcdPIucq15u5FEJQ4MbmjJDBEpcTaOsgaqiNLeHobfdt91zttduYHDddLMkV94j7cOHS8tNH+XDqH2KZPPDlsqsAAAfrUlEQVTomMqL/EzT+T9oxZwjB8E0DKhVxrSkEyzxR3kG4DYqQ37RMR6w9fH9UHSlSK4lXcgrXzMbQK8wXrofoj0aT2mPxFcchilXRtAlpBGBglipiaV9vdkzmZXY9zh0T2yV9Nq7jRhij5rVD2/QbW2t3jNVhj79429iYn6tiyxsjxxBPN6lErvoeglPmEwHQcE1zPc/VhXa6ZPG4JDcCdPoSz+X5Na3zWxtgO3EyE57H6FP8yS2+AqOVRtV3d/fVpL14WMRhXZxUsUDkgod2y8xZWGq8pTgnNqPIxMJSgNxA25qe8Rkzz+7e9OqfwQZOr2T2XXN98wM7RUAjfbFGrMA0srrmXGXITOTIkS1NEHudfUPJ9jYbaf9O56BY/AZfMTVlZZ7rSjJV1+T1Fvfl8jFn+fP2uemqfKwZPu5/amfQX/7NAeyj7BaojIM8SG65EqjuusGStV+DEf7wS88hUSXs+dL28PfkeRq6sE8reKIe/oEPs0PSmTOhXwMLM01LpopwBhE3NfNh6VJwJ2DWwy/tBWr7mrhHt0lroLan+Z02bfHTem+tNfonTVYIfX2jz0RyLBbEgCBZBGadrVEln4aJ0U4/wqBkvhMeyTm/RFTDAWxM36BJF/+ZyZswta02DFxtj0sDiJIaNZ7atT6bLU1merShw+QYpjOkawMpQ7xrR/9vDRdfouERikheQ+PVl8Iokhab/u0RM6+INtiOju1ZQ1xgv3j6KNRLLZm5sqkSkaHfGgj2Wa3VHVwzLK/Gf7rdowtQQEsoQlzq/qcUpWlNpFnZi8rYzAR8RGHpiyVyLv+HH8XOLILATq3Qt0DNI0EuDciR3+RFTbnXbgutfrf2EwW1niValel53pAVqXVcT1umZ0v/dJ3mfQFK5avlts/Lc0AWvODl120U8dPkeYbfxtZjlk6cGBLtUvn8w8ye3dlFS273koupA2RmUuMK2iQGsOBtjexfoW3WaykrlLXquMUqrNMWjsNE0MODU1aWOqu6p0DbMnNz4rlZK2nuhKGl3zKcJRUZGxiQgrNukysGbepNsBvI1BrR0TZ/2r12lykpqqD2jkBd/OmtwBgUHUaUWGhtFx9c5Em9HxYvdci593Eyp8FcWr3TjzYdKmufTHec1NmIU97z9JMAilyG6b3b6zOw9EkJNY8wH4i6zutAQOxi6vnr91TQ5NbVoqc3OobfsBwKCmhue/rdVpoK9LC3uk3CQ2akPn4XUjq0/vZY+keqYal6qBOHz8i6aN7s7OYfrVnL2PD03vfY91IRuZd7EksPq7dU/uI6N5cw67JqRqVVeySD/FOwayj/2S1ePrbRQ1IlTQsfWAj+RLvz87SODLZ43BvPfu6Sqrp07XO0a2YvtE+maJZyCCCn74cSaT3+wZr+DREt/PpLH+JVTar49txjcBBrIal6qB2TuKqeRK1lCns3qEICE/CnVJTIfe2oAMNTyH71ZgZgbOcAZNzHBN7P5XoomskNHMZq4W/PPOxJjc8b6jG+lLUfyKx6id8JLmeeI7ELv1IzzJsXx6cc6/qpa323UzPHvgsEii5Me3v2X16gu5HrBHUgROYV9RNgmxnZxSoWUYdWPRdR60UXrFaR3u0AcFGq7fdFEOXPRrvuKBeO8k+BN2oMej0Q2Ev0Hz1nYaJKVPQt3e+cC9JPBFDetMOluHkuqdMMlDPukPNmKBDky6AP+Sqfngp7xGqyXHaAJubnZVDY9kca4axPharaSz7kRyqB+Oopcal2pWqztRqkNCAURNxrWopHWhX1XQo6fsI6hAumWYTlbM5dE9iUu5Ht8zQWefC74FKKgCw6s4xFHWu+A8MMtsrGyVUlMnNL0h85Q/JF8PK5u+p1YIZOe+WmgQhFG2gmv7hBQyKyr4SYcz6WlTDBSlmkANHq9PxUueoWpbq6ql1sKGu7VLUkFANRyTfdN6tM3I2j93OVfmAPWykRJfdAU3vNlI9e5tENRmn1r8g7e3HoUv4pEkU2hMXnhs/ZYhsEi99H0PT4az1mK4KzycB6LzLswaYKr9DoercFO4KytCaKbjXxnJWpEI3lXUMFZ9qu/o4oZX1qJyLqjpTm51cNM9PQUFeBQcgN6EfC9NZbgepMQSPvn4rvF9k5iKcq36ri5XPAHvbamm79wuGNNLBA9GFOy+/uPGTBNKulo5f/J3Ef/1lAI0PSU4JTTqPvIkfRJU3znvX/ArOuL81B05tRY1CXVLdmRqMeY4vqrJRE6ke4MXUoKAzQU8Gl0It9I85p/Av0LRuOcUeBddzYKotcW9VT7FpjSy+Bp/ioxJ/9tsme23GzwG/h47HvyrxV++DpOY6YhnPlVBLizjqBHX6CJZIUtRtegoRihblJF10HaX0nQ/r6Z8gT8+ranPLqczo4IehnVINiDYN91c12fe56JjHj6L7xl8+qEwxUWNmjqqCWpP4hMbiT4svtOdiCpaZsdSXQ3Tz2AcnLY0T1IAC0ydakPs0XdtAFN0sxi69jQiYVmbmu2kXKky0IVZYl1t8G5S3+g0sqm/c5zUvaLM2HpNx8BHoSf3OQ2ctlqar/wi/CnzGB6BYEMFLSF0OdFb1B0nTTKOZ6dGKWKq96gTVwbixQgUTmhVlb9RUW/eG6q7dDJqNx53VrJsMHUk2UqexlO3f0edlKH34oKSPEVgQtDhKHvDhukwPTNF8iNElN0rLrX+Jqm+JcfrpIpZqXnJLI3b4Kd2verwpoIOC5U49MaMXfcjw5oWmIosPUFH3Vqt1qpmhtSj1sHuSMTu1q08t0o/CPU0dGVMwH33LJD6U2hJfVnWm1h6wR2D7HzMJy5G+DF9qJ9wVe+gg9LBWpHcg1KT0yS0w9fuAVvDYMSKvJ8/sU6f39WYL3Xvk7OX4R8xj4/c04si/evzTEeIsi22OdYDRddtTL5CmKz9FeoylzO4K/mA672urenE/bbXHnCUpN7Al4JJwis3w4e2klT6nFxV6t7idmMVPbGGwfD0172gNgwaipe+qwlKNqj6o0SWHJp0lsn6VAbWELEltfk10prXhXa684I56fL+k1j1P53gDr+BWQEemzqq8umrfwcbVHjEBCrIPS9Py29A7Py7xt54S9yhcIRowm0J9pW6cWCVVbInMWAwTE05d6tPRT07z5bxyaPJCwDYRsVENWvSzuqHuXYlodCkrLxyClRbG3sHxyz1OcEgocDdldRp9dkYUqbTKcq+vOqiVeDyycAkORz9HltJmhPDRwGvvhUclPF2JyPO0Iz201E3EJb72BUQPAj0DmVzN1hei9hpsRUF73q3m57Yf9Rzn/d2/1cSmVslqco03g6j99ti5eOKdL+kdj9EqxA9mbWfXCknPvgU15bKKgei0QZm27h7uy0LMimGIU9N7jUt1ZWq/sdEF+HqMxA844IVDV9n53IMYG9ZW/DrpI3sxI6vGINB/O7hjTjWR5oO5KM9eaAKRPZMWmJ89CjL2QQrooB8jC240xpKgqH+L887jiI5dXUjL6ff0hoeQy1X08PcRaEDsKVezGmStwuXU05tragJqGyLyYbd/nJk6IGFBRosnpe2nX0EMKd9fw010EOnyoKT24Ljki5wa9BpepFHKvXeQ6k1H1cM99qTFfIjzeVVPt6xhd6ltj8P4+nTOpNJzTziH1oiz5fuMWc6qDLjD593Z881VuKLq4kfQpuh575LYuRdLYtMaXo6NAoJwaudWaX/0+wD+DzzTea5uK+9llBwxvuoJ6XjmATrUV+CjFgxBzti05LqKxZiK+4qPxzi0pzAh6yqhm94EBpViGzoNXapyUVWbCU7QoFY2c2amr2HmLpWdw+fcDLcHY+a7OugmPbX622wYZ+PDs4j3L6GXVTn62CZJvvJV+iqY0NRVIkHkzOc8nsAq91Gh6moGart1hDS//+OS+tb/xB8EV0NArT7WnSsfMRuolmvuMDK24dXILQA4TTygBhp0PvNTQ/mlPCBalOQldvl7JTyVzUYtij5bs9Xu937OoS3I8kfRBOCbAbDdJJwcTYGGIK8BIdw1iykwguPFzvtVdbtfg1rR+VuthLhB9WuPmYlL6jxsAbOMx2K3CO6+9gkNCM0k1G7XSrg+EPnUB4Q9kbr5Jp/+O5Flvy/2dJz/mwjFyy8wSaX3rWJDD6XCUc+FwFzChtOeiDg64/r8O2r2d01zvqi1rf3JB6A3+B6bJrUG6qgS0RFWuXgGGV8vwvIGC9N4BgguCfc48vOGN0ju86IncuSZWGPLb5Fht/1hn3yzC/Wk03YK8/XbuJHi+I9vs3MAzQUAzjguBTepSqpE4E7OnqjrYwIhrxioOW8A3U0YVNMjxQSw+v/EgmqNGCshrJWRc9CiTF1U9Whz5/B68tD8D5y1NniaG55vEp/ybHsKcYbTlhOIy3MxPlnpNpy5YG3a+5yXsSxxzFO9+u9ijThLwhd9DrXnJaVn+a49VtZfxXK+1BTU2rI0If/tj/6ANG33ARRvZKwInRTCoy8JzYB63rksaQYwGGsQO9SfN3/ai13ybml536ckNHpit3Nl9UCBi5RpKLl1rcRXfJ9d/xpWSfUeUzGiGPo4Ey4uZpQEdfEqvRW9G6BzGqzncu9X101WPjVvh6ZfLLFlH/GskfmrXoF3LusQhoD07lWSWPGPzNLv8M7+l6wqWv36VARBTWnHENEgondTHNMwMGP+ZxxVQtE2E/0SXvJZCc17L3UUWeHKalDhiwYM1NocA+z/dy8aEJzhOwm3Z/9QFAC57acTrWgTTj7XYLn7A5bdyYXfrtKj6vcNH1x85YNoVkjBbDzldLCCirLA9QJuORFSIHG+m4xQ/OFqSCxZutTV/WNR0h9XLU1GvlVABdfkIFyX92HjJLLkDnxS3u9ZWUvJvSUb1PWkAju56t+Zsd/iRPeJpnBVuhKD6CaoMC75C7GnXentBQpf3KejAwpqbbkCO/4G/sPP/gSimnc4oFwe+tEXmKI07Ic+DE2eQZzeu6XpXe9hhoaTrQJAFestXQmSW9bygf1Q0ptX8hyej1HH4ECxAkiU+sBiRdCA0xAUBaqe1NRyqp5SBqlqla60a/5m2FSufUIfEIzrJvAZP7kbA9Qu9ib7zb/1HTIbNvMt6gfXjjz8HlxjP8xSv7g6jl5qgCGTQertn4mz82mRBOFeZqYuMGbabOUBJCDAnrBEQguhG1OyyBqqMQcc1PrOOhipfTsk8darktq4EqKb1URc+BmpTKcoeQtZY5ETw+dcIrHzLoHFiY5R1tMqFFUHqjm785kfGX9oXU2DYmRGOc1sdwvGoyvQLZ+Nbhk/BZZeK8xmtthAVqFdJasAWMZ9MwH9mpLdHFwnyW0Yo7aT5CipGhFtm18DWAuNnYfF8qMmlV1VNCXMLqqnTu9dhUgCF+IBonTadzCYgd3Ae7bVehbyNkQ3E9gjTeK/w3USKgL+ki9c/slBAWrTXFWNaaQFPCBKUeUc3oeGgVCiJLlUxkyGtQkvv2Z8J5pRZ6n/RBVm56Cb4q8/JR0P48d8kjCwTL26CSKECqekpuvhGDnrHCOrVl2zUP5Ylb4SgOvs7RzZSODvN9A4rPGAHdylEwP5GWPX/BUTww2l66rkrIJbVZzKSx3H8+74bsaSPQg8f1YLdMuY2NUDT4i093zec0SkSp5TwbX9B2qd/nKnwAoaWfGlZikso/MAQnz1s9L2oy+yqtO+QOThXnVfjV72YWm+EkZV3bSeSQWQJd64nx+bcKX5CoqqAtFvN737H71Yx3JkbDNmwa+WnRCMWRnj1kMzioE6T0ncQy3FThPd4rRrNgDIE49D8HgK2QvNghsQZRS7rxfHDYZVxYSHnAV1go1zu5GBdWZnU9mtMMMkNr8hHY98tSugGcDQ9PMIwfoY3Ncsl2caoPVFkVejF/AxQveVfP0H6Nff5CBLPtokFVkSL8JaSghaaAoMV4VEAaUNRuNj6IPxVVHfdyudIw7md6bp+/yDFfyt2hnNOtDMmPEzqUaU9anKBqW+gRoxIrlrG2SOJM/ctgk5VY0VZAdgBlGW+WqldTCbMz+MS8fGTDwsc3Yz/0DmtcexoYO/LTKHSBM89+zhWeNA+uh+1IkExmrGAn9gVbaPzFuKivC/eIacYm6iFYzXgF2Kqiwy9wpDtNmpIWIHX+c9iQoH2I7q/V/7rsRadbOb1RwZZ6uj27HwrkKMgMDmNEEOCmZYVwkvKv0qhUCt1s7cj0ZF6ULXKbc1hPJKLqmejdIyC34+iILG8Rs9hzHuGxyDhvdaT53c9Y50rHyCTkPpvucd1JYAzJiTVfWj1Rd6K++xRk9dUfupS/8XaCgy3e4tl+Y4GyYbnonQnGUSW3qdRBddYa7qePZe6fjlXQyYp13QINPQ1PnS+jt/L+HJ6gZZvJ2Zx5wJ/0B8SB/cKPEn/54ZG6OJBilQrIgt0Ush5WTzqCW1bYUk1z8mzr43mKGZmbXvdCNaoh9UN19oos90S969GT115oKcfyg+tOgkRaVWiLqVGnjyVbi5Xos5fm6huwoeKyZ+VAZqOs45eUI6XnoSoPwnXztfeNGSo1rIu6ZnUCvQuL9QZ5XAoFoqzQCxYQnPXYaP883S/vOvG9J2ry42UcPHSMsH/kKi516Vmf2LvsKZdkJpFzY8jtHka4iDyoKkqkoMXCNmImb9OWB+BK3JCmwFGrChyZJ8VWa39+w6dlUFdbdneQfsGM9sZcae+V4JzX63URZo+0uVqoA6sXWdtD90j8TXvMIuWH0yCjxSVWD6BTZzssTXX+DOzCEVN5Q3Tzu+W9EZWy2OmrVKNzeq71b1kvkO+PrNBOCvFiHcKDHjBkW1KbErPyLNN9yJ/0LguN7tCWf0AcP49OK34Zhm88ismJlhLTQ6LiKGWUl9VZtZAOlDQ2PgLYNWRMfPn03L7QmlwciZys0/8/GoaT6wOho6Bi0mOVTXj8du5m+VuScSTbTg99CGlSbHLAbqAqgp/Cbxta/Iqf/434gauxDuVXfrdYyq53TTFp4yEy8uEtjMVIcb9LtKYNPtzQrXXelRI68rqFELpvduw+dgE6qtrcga6jhlUO9VmQNoJcGxZyzCOnnzkAW0vrRuvCILb8GHZR0iBmSMQSCtAtpcwLgpsBXwqOHsUdMRxzDWqL839xpjSS14OlSednXMdFN6GFXuWpNLxu3cB8B9E7u2j0wN7h4SJ53C3Xjp35vAhUpLWaBWQJ/4xn9H3EC/q3pIHzNORxLNwbnIbNdJ8/LrmZ1xcIH3w+QA6eUsXdELqO4UxyONjknvWi+drz0BscxzdJpGL+dNFZjBo+e/Gzn6rIoecSZebI8j1O2cmyR+4I3uzVcww74UmnmZhBdiqZ1AGJdqfjSvTEnBuXtVvTpiVL5oxlLQ/OLKm975rLg7H+Yj1Lb6qycigEuumPRLnxO56J88kskKNpGlZWoakCQ93Im7viSp7cSa5RQVEZpv/oih6A1Pntmr96v6TVgM428/h7YDE/geNkuBvhw5OzRlgQy780sSHl8l/5GqN766FTon90Ga83noG9TTzp+7+M4VxJELflvCs6+suiqtt2/gntxFbOfPRHbfw5h1nWetkfMhcP9rvAI1ALjrRFVM/PCFq8LNUfVc+2P3YR5laQ8KS1N42jQZ/skvyvDb7xw8gNb2IRvG2ACq7rmLzwGakchCTO51AmjtCs0VEyJivcvGh5k4csHvAWg2yVXWDRdGUHlHrRHTJXIhvtrn/g0i0bQuN7mIIenN/4lx6VB5lem7l7qyY+VT0vkKy0NSGZe8Ep4yRYZ9kKwAl92IbMrmYzAWJY0MVEfM1lYT/NbzLx2MLa1pm8KzlwNeNsvBimX2IiWMKzVtTenK1cQennuzhBb/EcCemr1YSUf3PkH6uudLV5BztiiojR76oe8Y3o5A1lKrXcutvydNy9SdsCxxvOyGVOtCh7jI1G4SDakhwS9WC1HMBCXUWwmNn+/T8fpaBhVnj26mb3owsAxUR2FIsqddI/a8O1l1cyZMTRS7WZllCeQtoxQEtTrMdDz3iKSOEsbkb7jUSthy423ScpU6fA9OQJv3VV26Ju/M2fSExpG2rUJqhjL6bvBfQjSRhoFlCqB2TuzKmbkH4Ssg/9voqe1Zd+Q0DsXjaSzWux41Jv2eSkFQpw7C0/HsI1m5lI1WZNpZ0nLDB3uqb+DPEyjrHOdj9C2I2iBr5KRBJUP2WycpQHLZkFRbpMHDBXKL91ubyniQ7ofs2R9ilZliNCWm2CPx6SYIuz3HcatIXQVBnViHCRXOh6C4+PQ23fSbOMwTSjXYi3aCsiJl5Ej6owWXyFroXgd7X+hqpYSV2ZEEI/SNWl0HedGNrj0P0z667UxhlnYOwvzVQ+kGatX7pt4iIgTdryl0gOZsab6YHfMZUEz4k8bw5RbjZ5Cntz4D3qWvTVT3U41G71J0ts7JxtDXZ9TyfnsKe7fWHOYAsOgeftFYk0uVbqB2jh5EloZ6N2NhSUpsyUX4TIwsVc+QO6cumcryb+gRapwirWTnKTWD0hgTU9mrVCBn8MdscsVMgPLM46+jmwgwOU04Ww8iSLcdX+rgfrgvcnSCRFGENRqETUe9FKftpHQ+/m8YBFZiJY1Bhv4JiS4miqS/XVQBdGrjryT+8j3oaY+Rgu4aeE8+Q5vqZIJR9+JRZ0taI5iNOMlqS2YvNw6vohS3DHebqd12smvBymOWayrSJEShMVCv1tHqndr6iiReIVnnCTix8SnpXPEDEwTb30WTCymg1ZXUAdSJNfdj2e1Zpuzvdtb0ec1s8mMBW67SMbAniAf5Hgs/udtMrYxIWQ48blIPrHy5rHBdQ+aoo6ns1AXR1tmhCccbln703v3+Xat+9iS7faUCVidlfpVY1obCgGj6E3WfRVHL6zAHGyq4CmVqVxMP5arDcHY5I0Od+jKivq0iW0W3A32pvex7kSBZLdUlVH9BGZi2lN3oql+o827O+6s2JCNjF35YN/Gj8GWNo40eOHN6oAHqM2esGi0tswe6ydRl3tflMt1YnoZWzGn3NlPKGBQ7HzKa8y/vTXU93qNsT50rsS4Z7juvRJfcQOqJ+T3e27gg2wMOBJCpDZieXU+zpWGNkXPJEQlhfC2Ks+8lyDfRKPmsTYaqeBbR8MoXUsVSFVA7WB87n9SYRTZUpFbQyOTQ8Naagdo9eYQA07sJKfNMqOqrEpmJv20D1BVBwzm2S+KvfIuNmG91JHwuPOum2oH64BpJvf5N2uhtuTVdSHTaLSamtJqlKqDWBllEcltNHaa5boLNTD8o/V3HY+NE8VjNPqmrupTLUOMStWiIZ1d+vxp0hXIh+x+RRkrVojTQUItebdQ5oD3QAPWAdn/j4bXogQaoa9GrjToHtAcaoB7Q7m88vBY90AB1LXq1UeeA9kAD1APa/Y2H16IHGqCuRa826hzQHmiAekC7v/HwWvRAA9S16NVGnQPaAw1QD2j3Nx5eix5ogLoWvdqoc0B7oAHqAe3+xsNr0QMNUNeiVxt1DmgPlAdq9X/tD+7iMrvCatL29HvEYJmtO7MvI2dZ7V4gD0Mk5/CyGBR7oiHjqZzFoBs/9bHHfion/v0fiHH0Xs4mrVt4xhyxm8j4VKQYUsbt6wiIzJIyhieRMYtfVYsCWTMYkC44vXW1IVzXotlqQ2QJsDTVs2YX2PmmYawP/HbtsWRjnTgLYp7SEeHmO8EVUxOWOsfIZ+Mzp1oE4IZmLcmJ1SwdJ2iyLJAa2mtchT2Q+60SZJreR7atoNBAZf63WoPo6q51W/kfuqbmSxwmY9pO/0JN1dcM0xZ9Acm603bEpIXOFCggQpMgYY/2kc3WvAMOwU3ZfnLiQLhzj8flFzzQPG8RbclJFajvkPseSVLiaVYBki6ZQnxi+KK/g2vvA1KMn7obqI8/9ZAc/+rfZkBtKlJmnBzWo259R2YuS6POu5UsBXCXU4rL8taILrdZMc/929ybO/j6p0nDrP+gI/MZmZQzIqD2zbtP6+mWOzP/fq03oOrS5wTP8p6Y+f9C76Tuw/ltzbvNBEkHxdKPwU894t3IO+e+bz4Dlb6P/052JP/lOOdnwco8wPRF0FcArVuudTINkAG4S9E+LVB114uyf1lhTU5aIG9MEIyQbYwJKAmKySGk6etKkXn6oA7N/qDEYnnsU35F3YIEQsNHKUK6ttfkv8uCVh/eDQgF39BzPs8/ZbI9dXty/lXd/y71TNdEXVMUpDoIucV8/f75Ah+TjrM5XWrg/JXLy3VT7L26PjbzV4GPsEvz9NkF2lWwNv1ycr+enFfLoQ/M3Jo/lGZsS3a+nQnvCioxaeEKzVkFG+j3ZVnvQ1tygG7lzOxFqvbazkzRbVXKuaEbtGIzSEQ0fpyk9rIsKZj9eDJzD73maq5EodKSA6XXFCch1ES4pZLhavSFm0yzfHUFjyHAzBtTbZaZpXMzShV/NDOueZNM0fR3phSYWHKvC/6tk5yZ3cghk1/MuWAwc09r3RWAIltvwGeY/6Scv3mOPteOascUuK5UX+j1RTIKWJZya/h9Qx3BQqdP0Jw+LsypxagzzELAO5f8dvKaalLO9VhYRZonkJpuJgtQ8a+mm/ihadxOrnoBViISSJ6ER66HojwrVSs6iVCfAa8CpPDqUtnjAFMlndtj5Zr3O5S3PBe5SWcTK+/DLHJp8cNGnCp+uuQZ+rOq45P3sJCmiOtLMR9V+XVYzWPJsHarSWwU07Td3ZYhrzHdQK2Hk6TDSLWdMjNzo+T1QIXyZaP/qtgDLIO6iQ2xf4v4cZWFau8mfuhFYTIFpAdrPpdCb9E4Vlc9oPgsVQoubDqtl/oSSlXYONfogVr2gOKymNgRPPf/A4GjvrdVgyKeAAAAAElFTkSuQmCC;" vertex="1" parent="1">
          <mxGeometry x="848.64" y="489" width="61.36" height="60" as="geometry" />
        </mxCell>
      </root>
    </mxGraphModel>
  </diagram>
</mxfile>
